<?xml version="1.0" encoding="utf-8"?>
<!-- Generator: Adobe Illustrator 15.0.0, SVG Export Plug-In . SVG Version: 6.00 Build 0)  -->
<!DOCTYPE svg PUBLIC "-//W3C//DTD SVG 1.1//EN" "http://www.w3.org/Graphics/SVG/1.1/DTD/svg11.dtd">
<svg version="1.1" id="Ebene_1" xmlns="http://www.w3.org/2000/svg" xmlns:xlink="http://www.w3.org/1999/xlink" x="0px" y="0px"
	 width="256px" height="256px" viewBox="0 0 256 256" enable-background="new 0 0 256 256" xml:space="preserve">
<circle fill="none" stroke="#9C9C9C" stroke-miterlimit="10" cx="128" cy="128" r="123"/>
<g>
	<path fill="#555555" d="M14.595,81.57h3.469v9.305c0,1.477,0.043,2.434,0.129,2.871c0.148,0.703,0.502,1.268,1.061,1.693
		s1.322,0.639,2.291,0.639c0.984,0,1.727-0.201,2.227-0.604s0.801-0.896,0.902-1.482s0.152-1.559,0.152-2.918V81.57h3.469v9.023
		c0,2.062-0.094,3.52-0.281,4.371s-0.533,1.57-1.037,2.156s-1.178,1.053-2.021,1.4s-1.945,0.521-3.305,0.521
		c-1.641,0-2.885-0.189-3.732-0.568s-1.518-0.871-2.01-1.477s-0.816-1.24-0.973-1.904c-0.227-0.984-0.34-2.438-0.34-4.359V81.57z"/>
	<path fill="#555555" d="M43.848,98.75h-3.293v-6.352c0-1.344-0.07-2.213-0.211-2.607s-0.369-0.701-0.686-0.92
		s-0.697-0.328-1.143-0.328c-0.57,0-1.082,0.156-1.535,0.469s-0.764,0.727-0.932,1.242s-0.252,1.469-0.252,2.859v5.637h-3.293
		V86.305h3.059v1.828c1.086-1.406,2.453-2.109,4.102-2.109c0.727,0,1.391,0.131,1.992,0.393s1.057,0.596,1.365,1.002
		s0.523,0.867,0.645,1.383s0.182,1.254,0.182,2.215V98.75z"/>
	<path fill="#555555" d="M47.647,98.75V81.57h3.293v6.188c1.016-1.156,2.219-1.734,3.609-1.734c1.516,0,2.77,0.549,3.762,1.646
		s1.488,2.674,1.488,4.729c0,2.125-0.506,3.762-1.518,4.91s-2.24,1.723-3.686,1.723c-0.711,0-1.412-0.178-2.104-0.533
		s-1.287-0.881-1.787-1.576v1.828H47.647z M50.917,92.258c0,1.289,0.203,2.242,0.609,2.859c0.57,0.875,1.328,1.312,2.273,1.312
		c0.727,0,1.346-0.311,1.857-0.932s0.768-1.6,0.768-2.936c0-1.422-0.258-2.447-0.773-3.076s-1.176-0.943-1.98-0.943
		c-0.789,0-1.445,0.307-1.969,0.92S50.917,91.008,50.917,92.258z"/>
	<path fill="#555555" d="M70.254,94.789l3.281,0.551c-0.422,1.203-1.088,2.119-1.998,2.748s-2.049,0.943-3.416,0.943
		c-2.164,0-3.766-0.707-4.805-2.121c-0.82-1.133-1.23-2.562-1.23-4.289c0-2.062,0.539-3.678,1.617-4.846s2.441-1.752,4.09-1.752
		c1.852,0,3.312,0.611,4.383,1.834s1.582,3.096,1.535,5.619h-8.25c0.023,0.977,0.289,1.736,0.797,2.279s1.141,0.814,1.898,0.814
		c0.516,0,0.949-0.141,1.301-0.422S70.075,95.414,70.254,94.789z M70.442,91.461c-0.023-0.953-0.27-1.678-0.738-2.174
		s-1.039-0.744-1.711-0.744c-0.719,0-1.312,0.262-1.781,0.785s-0.699,1.234-0.691,2.133H70.442z"/>
	<path fill="#555555" d="M88.409,98.75h-3.059v-1.828c-0.508,0.711-1.107,1.24-1.799,1.588s-1.389,0.521-2.092,0.521
		c-1.43,0-2.654-0.576-3.674-1.729s-1.529-2.76-1.529-4.822c0-2.109,0.496-3.713,1.488-4.811s2.246-1.646,3.762-1.646
		c1.391,0,2.594,0.578,3.609,1.734V81.57h3.293V98.75z M79.62,92.258c0,1.328,0.184,2.289,0.551,2.883
		c0.531,0.859,1.273,1.289,2.227,1.289c0.758,0,1.402-0.322,1.934-0.967s0.797-1.607,0.797-2.889c0-1.43-0.258-2.459-0.773-3.088
		s-1.176-0.943-1.98-0.943c-0.781,0-1.436,0.311-1.963,0.932S79.62,91.023,79.62,92.258z"/>
	<path fill="#555555" d="M99.462,94.789l3.281,0.551c-0.422,1.203-1.088,2.119-1.998,2.748s-2.049,0.943-3.416,0.943
		c-2.164,0-3.766-0.707-4.805-2.121c-0.82-1.133-1.23-2.562-1.23-4.289c0-2.062,0.539-3.678,1.617-4.846s2.441-1.752,4.09-1.752
		c1.852,0,3.312,0.611,4.383,1.834s1.582,3.096,1.535,5.619h-8.25c0.023,0.977,0.289,1.736,0.797,2.279s1.141,0.814,1.898,0.814
		c0.516,0,0.949-0.141,1.301-0.422S99.283,95.414,99.462,94.789z M99.65,91.461c-0.023-0.953-0.27-1.678-0.738-2.174
		s-1.039-0.744-1.711-0.744c-0.719,0-1.312,0.262-1.781,0.785s-0.699,1.234-0.691,2.133H99.65z"/>
	<path fill="#555555" d="M117.523,98.75h-3.293v-6.352c0-1.344-0.07-2.213-0.211-2.607s-0.369-0.701-0.686-0.92
		s-0.697-0.328-1.143-0.328c-0.57,0-1.082,0.156-1.535,0.469s-0.764,0.727-0.932,1.242s-0.252,1.469-0.252,2.859v5.637h-3.293
		V86.305h3.059v1.828c1.086-1.406,2.453-2.109,4.102-2.109c0.727,0,1.391,0.131,1.992,0.393s1.057,0.596,1.365,1.002
		s0.523,0.867,0.645,1.383s0.182,1.254,0.182,2.215V98.75z"/>
	<path fill="#555555" d="M121.346,98.75V81.57h3.293v9.117l3.855-4.383h4.054l-4.253,4.547l4.558,7.898h-3.551l-3.128-5.59
		l-1.535,1.605v3.984H121.346z"/>
	<path fill="#555555" d="M135.41,98.75V81.57h3.293v17.18H135.41z"/>
	<path fill="#555555" d="M142.679,84.617V81.57h3.293v3.047H142.679z M142.679,98.75V86.305h3.293V98.75H142.679z"/>
	<path fill="#555555" d="M160.799,89.984l-3.246,0.586c-0.109-0.648-0.357-1.137-0.744-1.465s-0.889-0.492-1.506-0.492
		c-0.82,0-1.475,0.283-1.963,0.85s-0.732,1.514-0.732,2.842c0,1.477,0.248,2.52,0.744,3.129s1.162,0.914,1.998,0.914
		c0.625,0,1.137-0.178,1.535-0.533s0.68-0.967,0.844-1.834l3.234,0.551c-0.336,1.484-0.98,2.605-1.934,3.363
		s-2.23,1.137-3.832,1.137c-1.82,0-3.271-0.574-4.354-1.723s-1.623-2.738-1.623-4.77c0-2.055,0.543-3.654,1.629-4.799
		s2.555-1.717,4.406-1.717c1.516,0,2.721,0.326,3.615,0.979S160.408,88.648,160.799,89.984z"/>
	<path fill="#555555" d="M167.176,81.57v6.316c1.062-1.242,2.332-1.863,3.809-1.863c0.758,0,1.441,0.141,2.051,0.422
		s1.068,0.641,1.377,1.078s0.52,0.922,0.633,1.453s0.17,1.355,0.17,2.473v7.301h-3.293v-6.574c0-1.305-0.062-2.133-0.188-2.484
		s-0.346-0.631-0.662-0.838s-0.713-0.311-1.189-0.311c-0.547,0-1.035,0.133-1.465,0.398s-0.744,0.666-0.943,1.201
		s-0.299,1.326-0.299,2.373v6.234h-3.293V81.57H167.176z"/>
	<path fill="#555555" d="M179.037,98.75V81.57h3.293v9.117l3.855-4.383h4.055l-4.254,4.547l4.559,7.898h-3.551l-3.129-5.59
		l-1.535,1.605v3.984H179.037z"/>
	<path fill="#555555" d="M200.309,94.789l3.281,0.551c-0.422,1.203-1.088,2.119-1.998,2.748s-2.049,0.943-3.416,0.943
		c-2.164,0-3.766-0.707-4.805-2.121c-0.82-1.133-1.23-2.562-1.23-4.289c0-2.062,0.539-3.678,1.617-4.846s2.441-1.752,4.09-1.752
		c1.852,0,3.312,0.611,4.383,1.834s1.582,3.096,1.535,5.619h-8.25c0.023,0.977,0.289,1.736,0.797,2.279s1.141,0.814,1.898,0.814
		c0.516,0,0.949-0.141,1.301-0.422S200.129,95.414,200.309,94.789z M200.496,91.461c-0.023-0.953-0.27-1.678-0.738-2.174
		s-1.039-0.744-1.711-0.744c-0.719,0-1.312,0.262-1.781,0.785s-0.699,1.234-0.691,2.133H200.496z"/>
	<path fill="#555555" d="M207.05,84.617V81.57h3.293v3.047H207.05z M207.05,98.75V86.305h3.293V98.75H207.05z"/>
	<path fill="#555555" d="M220.025,86.305v2.625h-2.25v5.016c0,1.016,0.021,1.607,0.064,1.775s0.141,0.307,0.293,0.416
		s0.338,0.164,0.557,0.164c0.305,0,0.746-0.105,1.324-0.316l0.281,2.555c-0.766,0.328-1.633,0.492-2.602,0.492
		c-0.594,0-1.129-0.1-1.605-0.299s-0.826-0.457-1.049-0.773s-0.377-0.744-0.463-1.283c-0.07-0.383-0.105-1.156-0.105-2.32V88.93
		h-1.512v-2.625h1.512v-2.473l3.305-1.922v4.395H220.025z"/>
	<path fill="#555555" d="M221.75,95.199l3.305-0.504c0.141,0.641,0.426,1.127,0.855,1.459s1.031,0.498,1.805,0.498
		c0.852,0,1.492-0.156,1.922-0.469c0.289-0.219,0.434-0.512,0.434-0.879c0-0.25-0.078-0.457-0.234-0.621
		c-0.164-0.156-0.531-0.301-1.102-0.434c-2.656-0.586-4.34-1.121-5.051-1.605c-0.984-0.672-1.477-1.605-1.477-2.801
		c0-1.078,0.426-1.984,1.277-2.719s2.172-1.102,3.961-1.102c1.703,0,2.969,0.277,3.797,0.832s1.398,1.375,1.711,2.461l-3.105,0.574
		c-0.133-0.484-0.385-0.855-0.756-1.113s-0.9-0.387-1.588-0.387c-0.867,0-1.488,0.121-1.863,0.363
		c-0.25,0.172-0.375,0.395-0.375,0.668c0,0.234,0.109,0.434,0.328,0.598c0.297,0.219,1.322,0.527,3.076,0.926
		s2.979,0.887,3.674,1.465c0.688,0.586,1.031,1.402,1.031,2.449c0,1.141-0.477,2.121-1.43,2.941s-2.363,1.23-4.23,1.23
		c-1.695,0-3.037-0.344-4.025-1.031S222.055,96.379,221.75,95.199z"/>
	<path fill="#555555" d="M236.482,94.168v-3.293h6.469v3.293H236.482z"/>
	<path fill="#555555" d="M41.308,127.55v-17.18h3.293v6.188c1.016-1.156,2.219-1.734,3.609-1.734c1.516,0,2.77,0.549,3.762,1.646
		s1.488,2.674,1.488,4.729c0,2.125-0.506,3.762-1.518,4.91s-2.24,1.723-3.686,1.723c-0.711,0-1.412-0.178-2.104-0.533
		s-1.287-0.881-1.787-1.576v1.828H41.308z M44.578,121.058c0,1.289,0.203,2.242,0.609,2.859c0.57,0.875,1.328,1.312,2.273,1.312
		c0.727,0,1.346-0.311,1.857-0.932s0.768-1.6,0.768-2.936c0-1.422-0.258-2.447-0.773-3.076s-1.176-0.943-1.98-0.943
		c-0.789,0-1.445,0.307-1.969,0.92S44.578,119.808,44.578,121.058z"/>
	<path fill="#555555" d="M63.916,123.589l3.281,0.551c-0.422,1.203-1.088,2.119-1.998,2.748s-2.049,0.943-3.416,0.943
		c-2.164,0-3.766-0.707-4.805-2.121c-0.82-1.133-1.23-2.562-1.23-4.289c0-2.062,0.539-3.678,1.617-4.846s2.441-1.752,4.09-1.752
		c1.852,0,3.312,0.611,4.383,1.834s1.582,3.096,1.535,5.619h-8.25c0.023,0.977,0.289,1.736,0.797,2.279s1.141,0.814,1.898,0.814
		c0.516,0,0.949-0.141,1.301-0.422S63.736,124.214,63.916,123.589z M64.104,120.261c-0.023-0.953-0.27-1.678-0.738-2.174
		s-1.039-0.744-1.711-0.744c-0.719,0-1.312,0.262-1.781,0.785s-0.699,1.234-0.691,2.133H64.104z"/>
	<path fill="#555555" d="M69.497,123.999l3.305-0.504c0.141,0.641,0.426,1.127,0.855,1.459s1.031,0.498,1.805,0.498
		c0.852,0,1.492-0.156,1.922-0.469c0.289-0.219,0.434-0.512,0.434-0.879c0-0.25-0.078-0.457-0.234-0.621
		c-0.164-0.156-0.531-0.301-1.102-0.434c-2.656-0.586-4.34-1.121-5.051-1.605c-0.984-0.672-1.477-1.605-1.477-2.801
		c0-1.078,0.426-1.984,1.277-2.719s2.172-1.102,3.961-1.102c1.703,0,2.969,0.277,3.797,0.832s1.398,1.375,1.711,2.461l-3.105,0.574
		c-0.133-0.484-0.385-0.855-0.756-1.113s-0.9-0.387-1.588-0.387c-0.867,0-1.488,0.121-1.863,0.363
		c-0.25,0.172-0.375,0.395-0.375,0.668c0,0.234,0.109,0.434,0.328,0.598c0.297,0.219,1.322,0.527,3.076,0.926
		s2.979,0.887,3.674,1.465c0.688,0.586,1.031,1.402,1.031,2.449c0,1.141-0.477,2.121-1.43,2.941s-2.363,1.23-4.23,1.23
		c-1.695,0-3.037-0.344-4.025-1.031S69.801,125.179,69.497,123.999z"/>
	<path fill="#555555" d="M95.456,118.784l-3.246,0.586c-0.109-0.648-0.357-1.137-0.744-1.465s-0.889-0.492-1.506-0.492
		c-0.82,0-1.475,0.283-1.963,0.85s-0.732,1.514-0.732,2.842c0,1.477,0.248,2.52,0.744,3.129s1.162,0.914,1.998,0.914
		c0.625,0,1.137-0.178,1.535-0.533s0.68-0.967,0.844-1.834l3.234,0.551c-0.336,1.484-0.98,2.605-1.934,3.363
		s-2.23,1.137-3.832,1.137c-1.82,0-3.271-0.574-4.354-1.723s-1.623-2.738-1.623-4.77c0-2.055,0.543-3.654,1.629-4.799
		s2.555-1.717,4.406-1.717c1.516,0,2.721,0.326,3.615,0.979S95.065,117.448,95.456,118.784z"/>
	<path fill="#555555" d="M101.833,110.37v6.316c1.062-1.242,2.332-1.863,3.809-1.863c0.758,0,1.441,0.141,2.051,0.422
		s1.068,0.641,1.377,1.078s0.52,0.922,0.633,1.453s0.17,1.355,0.17,2.473v7.301h-3.293v-6.574c0-1.305-0.062-2.133-0.188-2.484
		s-0.346-0.631-0.662-0.838s-0.713-0.311-1.189-0.311c-0.547,0-1.035,0.133-1.465,0.398s-0.744,0.666-0.943,1.201
		s-0.299,1.326-0.299,2.373v6.234H98.54v-17.18H101.833z"/>
	<path fill="#555555" d="M121.019,123.589l3.281,0.551c-0.422,1.203-1.088,2.119-1.998,2.748s-2.049,0.943-3.416,0.943
		c-2.164,0-3.766-0.707-4.805-2.121c-0.82-1.133-1.23-2.562-1.23-4.289c0-2.062,0.539-3.678,1.617-4.846s2.441-1.752,4.09-1.752
		c1.852,0,3.312,0.611,4.383,1.834s1.582,3.096,1.535,5.619h-8.25c0.023,0.977,0.289,1.736,0.797,2.279s1.141,0.814,1.898,0.814
		c0.516,0,0.949-0.141,1.301-0.422S120.839,124.214,121.019,123.589z M121.207,120.261c-0.023-0.953-0.27-1.678-0.738-2.174
		s-1.039-0.744-1.711-0.744c-0.719,0-1.312,0.262-1.781,0.785s-0.699,1.234-0.691,2.133H121.207z"/>
	<path fill="#555555" d="M127.76,113.417v-3.047h3.293v3.047H127.76z M127.76,127.55v-12.445h3.293v12.445H127.76z"/>
	<path fill="#555555" d="M146.348,127.55h-3.293v-6.352c0-1.344-0.07-2.213-0.211-2.607s-0.369-0.701-0.686-0.92
		s-0.697-0.328-1.143-0.328c-0.57,0-1.082,0.156-1.535,0.469s-0.764,0.727-0.932,1.242s-0.252,1.469-0.252,2.859v5.637h-3.293
		v-12.445h3.059v1.828c1.086-1.406,2.453-2.109,4.102-2.109c0.727,0,1.391,0.131,1.992,0.393s1.057,0.596,1.365,1.002
		s0.523,0.867,0.645,1.383s0.182,1.254,0.182,2.215V127.55z"/>
	<path fill="#555555" d="M150.287,113.417v-3.047h3.293v3.047H150.287z M150.287,127.55v-12.445h3.293v12.445H150.287z"/>
	<path fill="#555555" d="M157.251,128.37l3.762,0.457c0.062,0.438,0.207,0.738,0.434,0.902c0.312,0.234,0.805,0.352,1.477,0.352
		c0.859,0,1.504-0.129,1.934-0.387c0.289-0.172,0.508-0.449,0.656-0.832c0.102-0.273,0.152-0.777,0.152-1.512v-1.816
		c-0.984,1.344-2.227,2.016-3.727,2.016c-1.672,0-2.996-0.707-3.973-2.121c-0.766-1.117-1.148-2.508-1.148-4.172
		c0-2.086,0.502-3.68,1.506-4.781s2.252-1.652,3.744-1.652c1.539,0,2.809,0.676,3.809,2.027v-1.746h3.082v11.168
		c0,1.469-0.121,2.566-0.363,3.293s-0.582,1.297-1.02,1.711s-1.021,0.738-1.752,0.973s-1.654,0.352-2.771,0.352
		c-2.109,0-3.605-0.361-4.488-1.084s-1.324-1.639-1.324-2.748C157.239,128.659,157.243,128.526,157.251,128.37z M160.192,121.069
		c0,1.32,0.256,2.287,0.768,2.9s1.143,0.92,1.893,0.92c0.805,0,1.484-0.314,2.039-0.943s0.832-1.561,0.832-2.795
		c0-1.289-0.266-2.246-0.797-2.871s-1.203-0.938-2.016-0.938c-0.789,0-1.439,0.307-1.951,0.92S160.192,119.812,160.192,121.069z"/>
	<path fill="#555555" d="M181.008,127.55v-1.863c-0.453,0.664-1.049,1.188-1.787,1.57s-1.518,0.574-2.338,0.574
		c-0.836,0-1.586-0.184-2.25-0.551s-1.145-0.883-1.441-1.547s-0.445-1.582-0.445-2.754v-7.875h3.293v5.719
		c0,1.75,0.061,2.822,0.182,3.217s0.342,0.707,0.662,0.938s0.727,0.346,1.219,0.346c0.562,0,1.066-0.154,1.512-0.463
		s0.75-0.691,0.914-1.148s0.246-1.576,0.246-3.357v-5.25h3.293v12.445H181.008z"/>
	<path fill="#555555" d="M199.396,127.55h-3.293v-6.352c0-1.344-0.07-2.213-0.211-2.607s-0.369-0.701-0.686-0.92
		s-0.697-0.328-1.143-0.328c-0.57,0-1.082,0.156-1.535,0.469s-0.764,0.727-0.932,1.242s-0.252,1.469-0.252,2.859v5.637h-3.293
		v-12.445h3.059v1.828c1.086-1.406,2.453-2.109,4.102-2.109c0.727,0,1.391,0.131,1.992,0.393s1.057,0.596,1.365,1.002
		s0.523,0.867,0.645,1.383s0.182,1.254,0.182,2.215V127.55z"/>
	<path fill="#555555" d="M203.031,128.37l3.762,0.457c0.062,0.438,0.207,0.738,0.434,0.902c0.312,0.234,0.805,0.352,1.477,0.352
		c0.859,0,1.504-0.129,1.934-0.387c0.289-0.172,0.508-0.449,0.656-0.832c0.102-0.273,0.152-0.777,0.152-1.512v-1.816
		c-0.984,1.344-2.227,2.016-3.727,2.016c-1.672,0-2.996-0.707-3.973-2.121c-0.766-1.117-1.148-2.508-1.148-4.172
		c0-2.086,0.502-3.68,1.506-4.781s2.252-1.652,3.744-1.652c1.539,0,2.809,0.676,3.809,2.027v-1.746h3.082v11.168
		c0,1.469-0.121,2.566-0.363,3.293s-0.582,1.297-1.02,1.711s-1.021,0.738-1.752,0.973s-1.654,0.352-2.771,0.352
		c-2.109,0-3.605-0.361-4.488-1.084s-1.324-1.639-1.324-2.748C203.02,128.659,203.023,128.526,203.031,128.37z M205.973,121.069
		c0,1.32,0.256,2.287,0.768,2.9s1.143,0.92,1.893,0.92c0.805,0,1.484-0.314,2.039-0.943s0.832-1.561,0.832-2.795
		c0-1.289-0.266-2.246-0.797-2.871s-1.203-0.938-2.016-0.938c-0.789,0-1.439,0.307-1.951,0.92S205.973,119.812,205.973,121.069z"/>
</g>
<g display="none">
	<path display="inline" fill="#555555" d="M30.858,127.55v-17.18h12.738v2.906h-9.27v3.809h8.625v2.895h-8.625v4.676h9.598v2.895
		H30.858z"/>
	<path display="inline" fill="#555555" d="M58.763,127.55H55.47v-6.352c0-1.344-0.07-2.213-0.211-2.607s-0.369-0.701-0.686-0.92
		s-0.697-0.328-1.143-0.328c-0.57,0-1.082,0.156-1.535,0.469s-0.764,0.727-0.932,1.242s-0.252,1.469-0.252,2.859v5.637h-3.293
		v-12.445h3.059v1.828c1.086-1.406,2.453-2.109,4.102-2.109c0.727,0,1.391,0.131,1.992,0.393s1.057,0.596,1.365,1.002
		s0.523,0.867,0.645,1.383s0.182,1.254,0.182,2.215V127.55z"/>
	<path display="inline" fill="#555555" d="M68.41,115.104v2.625h-2.25v5.016c0,1.016,0.021,1.607,0.064,1.775
		s0.141,0.307,0.293,0.416s0.338,0.164,0.557,0.164c0.305,0,0.746-0.105,1.324-0.316l0.281,2.555
		c-0.766,0.328-1.633,0.492-2.602,0.492c-0.594,0-1.129-0.1-1.605-0.299s-0.826-0.457-1.049-0.773s-0.377-0.744-0.463-1.283
		c-0.07-0.383-0.105-1.156-0.105-2.32v-5.426h-1.512v-2.625h1.512v-2.473l3.305-1.922v4.395H68.41z"/>
	<path display="inline" fill="#555555" d="M70.99,128.37l3.762,0.457c0.062,0.438,0.207,0.738,0.434,0.902
		c0.312,0.234,0.805,0.352,1.477,0.352c0.859,0,1.504-0.129,1.934-0.387c0.289-0.172,0.508-0.449,0.656-0.832
		c0.102-0.273,0.152-0.777,0.152-1.512v-1.816c-0.984,1.344-2.227,2.016-3.727,2.016c-1.672,0-2.996-0.707-3.973-2.121
		c-0.766-1.117-1.148-2.508-1.148-4.172c0-2.086,0.502-3.68,1.506-4.781s2.252-1.652,3.744-1.652c1.539,0,2.809,0.676,3.809,2.027
		v-1.746h3.082v11.168c0,1.469-0.121,2.566-0.363,3.293s-0.582,1.297-1.02,1.711s-1.021,0.738-1.752,0.973s-1.654,0.352-2.771,0.352
		c-2.109,0-3.605-0.361-4.488-1.084s-1.324-1.639-1.324-2.748C70.979,128.659,70.982,128.526,70.99,128.37z M73.932,121.069
		c0,1.32,0.256,2.287,0.768,2.9s1.143,0.92,1.893,0.92c0.805,0,1.484-0.314,2.039-0.943s0.832-1.561,0.832-2.795
		c0-1.289-0.266-2.246-0.797-2.871s-1.203-0.938-2.016-0.938c-0.789,0-1.439,0.307-1.951,0.92S73.932,119.812,73.932,121.069z"/>
	<path display="inline" fill="#555555" d="M93.762,123.589l3.281,0.551c-0.422,1.203-1.088,2.119-1.998,2.748
		s-2.049,0.943-3.416,0.943c-2.164,0-3.766-0.707-4.805-2.121c-0.82-1.133-1.23-2.562-1.23-4.289c0-2.062,0.539-3.678,1.617-4.846
		s2.441-1.752,4.09-1.752c1.852,0,3.312,0.611,4.383,1.834s1.582,3.096,1.535,5.619h-8.25c0.023,0.977,0.289,1.736,0.797,2.279
		s1.141,0.814,1.898,0.814c0.516,0,0.949-0.141,1.301-0.422S93.583,124.214,93.762,123.589z M93.95,120.261
		c-0.023-0.953-0.27-1.678-0.738-2.174s-1.039-0.744-1.711-0.744c-0.719,0-1.312,0.262-1.781,0.785s-0.699,1.234-0.691,2.133H93.95z
		"/>
	<path display="inline" fill="#555555" d="M100.503,127.55v-17.18h3.293v17.18H100.503z"/>
	<path display="inline" fill="#555555" d="M113.478,115.104v2.625h-2.25v5.016c0,1.016,0.021,1.607,0.064,1.775
		s0.141,0.307,0.293,0.416s0.338,0.164,0.557,0.164c0.305,0,0.746-0.105,1.324-0.316l0.281,2.555
		c-0.766,0.328-1.633,0.492-2.602,0.492c-0.594,0-1.129-0.1-1.605-0.299s-0.826-0.457-1.049-0.773s-0.377-0.744-0.463-1.283
		c-0.07-0.383-0.105-1.156-0.105-2.32v-5.426h-1.512v-2.625h1.512v-2.473l3.305-1.922v4.395H113.478z"/>
	<path display="inline" fill="#555555" d="M127.684,127.55h-3.293v-6.352c0-1.344-0.07-2.213-0.211-2.607s-0.369-0.701-0.686-0.92
		s-0.697-0.328-1.143-0.328c-0.57,0-1.082,0.156-1.535,0.469s-0.764,0.727-0.932,1.242s-0.252,1.469-0.252,2.859v5.637h-3.293
		v-12.445h3.059v1.828c1.086-1.406,2.453-2.109,4.102-2.109c0.727,0,1.391,0.131,1.992,0.393s1.057,0.596,1.365,1.002
		s0.523,0.867,0.645,1.383s0.182,1.254,0.182,2.215V127.55z"/>
	<path display="inline" fill="#555555" d="M134.084,118.901l-2.988-0.539c0.336-1.203,0.914-2.094,1.734-2.672
		s2.039-0.867,3.656-0.867c1.469,0,2.562,0.174,3.281,0.521s1.225,0.789,1.518,1.324s0.439,1.518,0.439,2.947l-0.035,3.844
		c0,1.094,0.053,1.9,0.158,2.42s0.303,1.076,0.592,1.67h-3.258c-0.086-0.219-0.191-0.543-0.316-0.973
		c-0.055-0.195-0.094-0.324-0.117-0.387c-0.562,0.547-1.164,0.957-1.805,1.23s-1.324,0.41-2.051,0.41
		c-1.281,0-2.291-0.348-3.029-1.043s-1.107-1.574-1.107-2.637c0-0.703,0.168-1.33,0.504-1.881s0.807-0.973,1.412-1.266
		s1.479-0.549,2.619-0.768c1.539-0.289,2.605-0.559,3.199-0.809v-0.328c0-0.633-0.156-1.084-0.469-1.354s-0.902-0.404-1.77-0.404
		c-0.586,0-1.043,0.115-1.371,0.346S134.287,118.323,134.084,118.901z M138.49,121.573c-0.422,0.141-1.09,0.309-2.004,0.504
		s-1.512,0.387-1.793,0.574c-0.43,0.305-0.645,0.691-0.645,1.16c0,0.461,0.172,0.859,0.516,1.195s0.781,0.504,1.312,0.504
		c0.594,0,1.16-0.195,1.699-0.586c0.398-0.297,0.66-0.66,0.785-1.09c0.086-0.281,0.129-0.816,0.129-1.605V121.573z"/>
	<path display="inline" fill="#555555" d="M156.422,118.784l-3.246,0.586c-0.109-0.648-0.357-1.137-0.744-1.465
		s-0.889-0.492-1.506-0.492c-0.82,0-1.475,0.283-1.963,0.85s-0.732,1.514-0.732,2.842c0,1.477,0.248,2.52,0.744,3.129
		s1.162,0.914,1.998,0.914c0.625,0,1.137-0.178,1.535-0.533s0.68-0.967,0.844-1.834l3.234,0.551
		c-0.336,1.484-0.98,2.605-1.934,3.363s-2.23,1.137-3.832,1.137c-1.82,0-3.271-0.574-4.354-1.723s-1.623-2.738-1.623-4.77
		c0-2.055,0.543-3.654,1.629-4.799s2.555-1.717,4.406-1.717c1.516,0,2.721,0.326,3.615,0.979S156.031,117.448,156.422,118.784z"/>
	<path display="inline" fill="#555555" d="M162.8,110.37v6.316c1.062-1.242,2.332-1.863,3.809-1.863
		c0.758,0,1.441,0.141,2.051,0.422s1.068,0.641,1.377,1.078s0.52,0.922,0.633,1.453s0.17,1.355,0.17,2.473v7.301h-3.293v-6.574
		c0-1.305-0.062-2.133-0.188-2.484s-0.346-0.631-0.662-0.838s-0.713-0.311-1.189-0.311c-0.547,0-1.035,0.133-1.465,0.398
		s-0.744,0.666-0.943,1.201s-0.299,1.326-0.299,2.373v6.234h-3.293v-17.18H162.8z"/>
	<path display="inline" fill="#555555" d="M177.1,127.55l-3.938-12.445h3.199l2.332,8.156l2.145-8.156h3.176l2.074,8.156
		l2.379-8.156h3.246l-3.996,12.445h-3.164l-2.145-8.004l-2.109,8.004H177.1z"/>
	<path display="inline" fill="#555555" d="M201.254,123.589l3.281,0.551c-0.422,1.203-1.088,2.119-1.998,2.748
		s-2.049,0.943-3.416,0.943c-2.164,0-3.766-0.707-4.805-2.121c-0.82-1.133-1.23-2.562-1.23-4.289c0-2.062,0.539-3.678,1.617-4.846
		s2.441-1.752,4.09-1.752c1.852,0,3.312,0.611,4.383,1.834s1.582,3.096,1.535,5.619h-8.25c0.023,0.977,0.289,1.736,0.797,2.279
		s1.141,0.814,1.898,0.814c0.516,0,0.949-0.141,1.301-0.422S201.074,124.214,201.254,123.589z M201.441,120.261
		c-0.023-0.953-0.27-1.678-0.738-2.174s-1.039-0.744-1.711-0.744c-0.719,0-1.312,0.262-1.781,0.785s-0.699,1.234-0.691,2.133
		H201.441z"/>
	<path display="inline" fill="#555555" d="M207.994,113.417v-3.047h3.293v3.047H207.994z M207.994,127.55v-12.445h3.293v12.445
		H207.994z"/>
	<path display="inline" fill="#555555" d="M214.102,123.999l3.305-0.504c0.141,0.641,0.426,1.127,0.855,1.459
		s1.031,0.498,1.805,0.498c0.852,0,1.492-0.156,1.922-0.469c0.289-0.219,0.434-0.512,0.434-0.879c0-0.25-0.078-0.457-0.234-0.621
		c-0.164-0.156-0.531-0.301-1.102-0.434c-2.656-0.586-4.34-1.121-5.051-1.605c-0.984-0.672-1.477-1.605-1.477-2.801
		c0-1.078,0.426-1.984,1.277-2.719s2.172-1.102,3.961-1.102c1.703,0,2.969,0.277,3.797,0.832s1.398,1.375,1.711,2.461l-3.105,0.574
		c-0.133-0.484-0.385-0.855-0.756-1.113s-0.9-0.387-1.588-0.387c-0.867,0-1.488,0.121-1.863,0.363
		c-0.25,0.172-0.375,0.395-0.375,0.668c0,0.234,0.109,0.434,0.328,0.598c0.297,0.219,1.322,0.527,3.076,0.926
		s2.979,0.887,3.674,1.465c0.688,0.586,1.031,1.402,1.031,2.449c0,1.141-0.477,2.121-1.43,2.941s-2.363,1.23-4.23,1.23
		c-1.695,0-3.037-0.344-4.025-1.031S214.406,125.179,214.102,123.999z"/>
</g>
<g display="none">
	<path display="inline" fill="#555555" d="M48.773,110.37h3.469v9.305c0,1.477,0.043,2.434,0.129,2.871
		c0.148,0.703,0.502,1.268,1.061,1.693s1.322,0.639,2.291,0.639c0.984,0,1.727-0.201,2.227-0.604s0.801-0.896,0.902-1.482
		s0.152-1.559,0.152-2.918v-9.504h3.469v9.023c0,2.062-0.094,3.52-0.281,4.371s-0.533,1.57-1.037,2.156s-1.178,1.053-2.021,1.4
		s-1.945,0.521-3.305,0.521c-1.641,0-2.885-0.189-3.732-0.568s-1.518-0.871-2.01-1.477s-0.816-1.24-0.973-1.904
		c-0.227-0.984-0.34-2.438-0.34-4.359V110.37z"/>
	<path display="inline" fill="#555555" d="M78.025,127.55h-3.293v-6.352c0-1.344-0.07-2.213-0.211-2.607s-0.369-0.701-0.686-0.92
		s-0.697-0.328-1.143-0.328c-0.57,0-1.082,0.156-1.535,0.469s-0.764,0.727-0.932,1.242s-0.252,1.469-0.252,2.859v5.637h-3.293
		v-12.445h3.059v1.828c1.086-1.406,2.453-2.109,4.102-2.109c0.727,0,1.391,0.131,1.992,0.393s1.057,0.596,1.365,1.002
		s0.523,0.867,0.645,1.383s0.182,1.254,0.182,2.215V127.55z"/>
	<path display="inline" fill="#555555" d="M80.524,115.104h1.828v-0.938c0-1.047,0.111-1.828,0.334-2.344s0.633-0.936,1.23-1.26
		s1.354-0.486,2.268-0.486c0.938,0,1.855,0.141,2.754,0.422l-0.445,2.297c-0.523-0.125-1.027-0.188-1.512-0.188
		c-0.477,0-0.818,0.111-1.025,0.334s-0.311,0.65-0.311,1.283v0.879h2.461v2.59h-2.461v9.855h-3.293v-9.855h-1.828V115.104z"/>
	<path display="inline" fill="#555555" d="M93.018,118.901l-2.988-0.539c0.336-1.203,0.914-2.094,1.734-2.672
		s2.039-0.867,3.656-0.867c1.469,0,2.562,0.174,3.281,0.521s1.225,0.789,1.518,1.324s0.439,1.518,0.439,2.947l-0.035,3.844
		c0,1.094,0.053,1.9,0.158,2.42s0.303,1.076,0.592,1.67h-3.258c-0.086-0.219-0.191-0.543-0.316-0.973
		c-0.055-0.195-0.094-0.324-0.117-0.387c-0.562,0.547-1.164,0.957-1.805,1.23s-1.324,0.41-2.051,0.41
		c-1.281,0-2.291-0.348-3.029-1.043s-1.107-1.574-1.107-2.637c0-0.703,0.168-1.33,0.504-1.881s0.807-0.973,1.412-1.266
		s1.479-0.549,2.619-0.768c1.539-0.289,2.605-0.559,3.199-0.809v-0.328c0-0.633-0.156-1.084-0.469-1.354s-0.902-0.404-1.77-0.404
		c-0.586,0-1.043,0.115-1.371,0.346S93.221,118.323,93.018,118.901z M97.424,121.573c-0.422,0.141-1.09,0.309-2.004,0.504
		s-1.512,0.387-1.793,0.574c-0.43,0.305-0.645,0.691-0.645,1.16c0,0.461,0.172,0.859,0.516,1.195s0.781,0.504,1.312,0.504
		c0.594,0,1.16-0.195,1.699-0.586c0.398-0.297,0.66-0.66,0.785-1.09c0.086-0.281,0.129-0.816,0.129-1.605V121.573z"/>
	<path display="inline" fill="#555555" d="M104.505,127.55v-17.18h3.293v17.18H104.505z"/>
	<path display="inline" fill="#555555" d="M111.773,127.55v-17.18h3.293v17.18H111.773z"/>
	<path display="inline" fill="#555555" d="M121.502,118.901l-2.988-0.539c0.336-1.203,0.914-2.094,1.734-2.672
		s2.039-0.867,3.656-0.867c1.469,0,2.562,0.174,3.281,0.521s1.225,0.789,1.518,1.324s0.439,1.518,0.439,2.947l-0.035,3.844
		c0,1.094,0.053,1.9,0.158,2.42s0.303,1.076,0.592,1.67H126.6c-0.086-0.219-0.191-0.543-0.316-0.973
		c-0.055-0.195-0.094-0.324-0.117-0.387c-0.562,0.547-1.164,0.957-1.805,1.23s-1.324,0.41-2.051,0.41
		c-1.281,0-2.291-0.348-3.029-1.043s-1.107-1.574-1.107-2.637c0-0.703,0.168-1.33,0.504-1.881s0.807-0.973,1.412-1.266
		s1.479-0.549,2.619-0.768c1.539-0.289,2.605-0.559,3.199-0.809v-0.328c0-0.633-0.156-1.084-0.469-1.354s-0.902-0.404-1.77-0.404
		c-0.586,0-1.043,0.115-1.371,0.346S121.705,118.323,121.502,118.901z M125.908,121.573c-0.422,0.141-1.09,0.309-2.004,0.504
		s-1.512,0.387-1.793,0.574c-0.43,0.305-0.645,0.691-0.645,1.16c0,0.461,0.172,0.859,0.516,1.195s0.781,0.504,1.312,0.504
		c0.594,0,1.16-0.195,1.699-0.586c0.398-0.297,0.66-0.66,0.785-1.09c0.086-0.281,0.129-0.816,0.129-1.605V121.573z"/>
	<path display="inline" fill="#555555" d="M144.309,127.55h-3.293v-6.352c0-1.344-0.07-2.213-0.211-2.607s-0.369-0.701-0.686-0.92
		s-0.697-0.328-1.143-0.328c-0.57,0-1.082,0.156-1.535,0.469s-0.764,0.727-0.932,1.242s-0.252,1.469-0.252,2.859v5.637h-3.293
		v-12.445h3.059v1.828c1.086-1.406,2.453-2.109,4.102-2.109c0.727,0,1.391,0.131,1.992,0.393s1.057,0.596,1.365,1.002
		s0.523,0.867,0.645,1.383s0.182,1.254,0.182,2.215V127.55z"/>
	<path display="inline" fill="#555555" d="M146.924,127.55v-2.566l4.664-5.355c0.766-0.875,1.332-1.496,1.699-1.863
		c-0.383,0.023-0.887,0.039-1.512,0.047l-4.395,0.023v-2.73h10.289v2.332l-4.758,5.484l-1.676,1.816
		c0.914-0.055,1.48-0.082,1.699-0.082h5.098v2.895H146.924z"/>
	<path display="inline" fill="#555555" d="M168.056,123.589l3.281,0.551c-0.422,1.203-1.088,2.119-1.998,2.748
		s-2.049,0.943-3.416,0.943c-2.164,0-3.766-0.707-4.805-2.121c-0.82-1.133-1.23-2.562-1.23-4.289c0-2.062,0.539-3.678,1.617-4.846
		s2.441-1.752,4.09-1.752c1.852,0,3.312,0.611,4.383,1.834s1.582,3.096,1.535,5.619h-8.25c0.023,0.977,0.289,1.736,0.797,2.279
		s1.141,0.814,1.898,0.814c0.516,0,0.949-0.141,1.301-0.422S167.876,124.214,168.056,123.589z M168.243,120.261
		c-0.023-0.953-0.27-1.678-0.738-2.174s-1.039-0.744-1.711-0.744c-0.719,0-1.312,0.262-1.781,0.785s-0.699,1.234-0.691,2.133
		H168.243z"/>
	<path display="inline" fill="#555555" d="M174.797,113.417v-3.047h3.293v3.047H174.797z M174.797,127.55v-12.445h3.293v12.445
		H174.797z"/>
	<path display="inline" fill="#555555" d="M181.76,128.37l3.762,0.457c0.062,0.438,0.207,0.738,0.434,0.902
		c0.312,0.234,0.805,0.352,1.477,0.352c0.859,0,1.504-0.129,1.934-0.387c0.289-0.172,0.508-0.449,0.656-0.832
		c0.102-0.273,0.152-0.777,0.152-1.512v-1.816c-0.984,1.344-2.227,2.016-3.727,2.016c-1.672,0-2.996-0.707-3.973-2.121
		c-0.766-1.117-1.148-2.508-1.148-4.172c0-2.086,0.502-3.68,1.506-4.781s2.252-1.652,3.744-1.652c1.539,0,2.809,0.676,3.809,2.027
		v-1.746h3.082v11.168c0,1.469-0.121,2.566-0.363,3.293s-0.582,1.297-1.02,1.711s-1.021,0.738-1.752,0.973s-1.654,0.352-2.771,0.352
		c-2.109,0-3.605-0.361-4.488-1.084s-1.324-1.639-1.324-2.748C181.748,128.659,181.752,128.526,181.76,128.37z M184.701,121.069
		c0,1.32,0.256,2.287,0.768,2.9s1.143,0.92,1.893,0.92c0.805,0,1.484-0.314,2.039-0.943s0.832-1.561,0.832-2.795
		c0-1.289-0.266-2.246-0.797-2.871s-1.203-0.938-2.016-0.938c-0.789,0-1.439,0.307-1.951,0.92S184.701,119.812,184.701,121.069z"/>
	<path display="inline" fill="#555555" d="M204.531,123.589l3.281,0.551c-0.422,1.203-1.088,2.119-1.998,2.748
		s-2.049,0.943-3.416,0.943c-2.164,0-3.766-0.707-4.805-2.121c-0.82-1.133-1.23-2.562-1.23-4.289c0-2.062,0.539-3.678,1.617-4.846
		s2.441-1.752,4.09-1.752c1.852,0,3.312,0.611,4.383,1.834s1.582,3.096,1.535,5.619h-8.25c0.023,0.977,0.289,1.736,0.797,2.279
		s1.141,0.814,1.898,0.814c0.516,0,0.949-0.141,1.301-0.422S204.352,124.214,204.531,123.589z M204.719,120.261
		c-0.023-0.953-0.27-1.678-0.738-2.174s-1.039-0.744-1.711-0.744c-0.719,0-1.312,0.262-1.781,0.785s-0.699,1.234-0.691,2.133
		H204.719z"/>
</g>
<g display="none">
	<path display="inline" fill="#555555" d="M70.345,127.55v-17.18h5.191l3.117,11.719l3.082-11.719h5.203v17.18h-3.223v-13.523
		l-3.41,13.523h-3.34l-3.398-13.523v13.523H70.345z"/>
	<path display="inline" fill="#555555" d="M90.96,113.417v-3.047h3.293v3.047H90.96z M90.96,127.55v-12.445h3.293v12.445H90.96z"/>
	<path display="inline" fill="#555555" d="M103.936,115.104v2.625h-2.25v5.016c0,1.016,0.021,1.607,0.064,1.775
		s0.141,0.307,0.293,0.416s0.338,0.164,0.557,0.164c0.305,0,0.746-0.105,1.324-0.316l0.281,2.555
		c-0.766,0.328-1.633,0.492-2.602,0.492c-0.594,0-1.129-0.1-1.605-0.299s-0.826-0.457-1.049-0.773s-0.377-0.744-0.463-1.283
		c-0.07-0.383-0.105-1.156-0.105-2.32v-5.426h-1.512v-2.625h1.512v-2.473l3.305-1.922v4.395H103.936z"/>
	<path display="inline" fill="#555555" d="M112.527,115.104v2.625h-2.25v5.016c0,1.016,0.021,1.607,0.064,1.775
		s0.141,0.307,0.293,0.416s0.338,0.164,0.557,0.164c0.305,0,0.746-0.105,1.324-0.316l0.281,2.555
		c-0.766,0.328-1.633,0.492-2.602,0.492c-0.594,0-1.129-0.1-1.605-0.299s-0.826-0.457-1.049-0.773s-0.377-0.744-0.463-1.283
		c-0.07-0.383-0.105-1.156-0.105-2.32v-5.426h-1.512v-2.625h1.512v-2.473l3.305-1.922v4.395H112.527z"/>
	<path display="inline" fill="#555555" d="M122.62,123.589l3.281,0.551c-0.422,1.203-1.088,2.119-1.998,2.748
		s-2.049,0.943-3.416,0.943c-2.164,0-3.766-0.707-4.805-2.121c-0.82-1.133-1.23-2.562-1.23-4.289c0-2.062,0.539-3.678,1.617-4.846
		s2.441-1.752,4.09-1.752c1.852,0,3.312,0.611,4.383,1.834s1.582,3.096,1.535,5.619h-8.25c0.023,0.977,0.289,1.736,0.797,2.279
		s1.141,0.814,1.898,0.814c0.516,0,0.949-0.141,1.301-0.422S122.44,124.214,122.62,123.589z M122.807,120.261
		c-0.023-0.953-0.27-1.678-0.738-2.174s-1.039-0.744-1.711-0.744c-0.719,0-1.312,0.262-1.781,0.785s-0.699,1.234-0.691,2.133
		H122.807z"/>
	<path display="inline" fill="#555555" d="M129.36,113.417v-3.047h3.293v3.047H129.36z M129.36,127.55v-12.445h3.293v12.445H129.36z
		"/>
	<path display="inline" fill="#555555" d="M136.629,127.55v-17.18h3.293v17.18H136.629z"/>
	<path display="inline" fill="#555555" d="M152.088,127.55v-1.863c-0.453,0.664-1.049,1.188-1.787,1.57s-1.518,0.574-2.338,0.574
		c-0.836,0-1.586-0.184-2.25-0.551s-1.145-0.883-1.441-1.547s-0.445-1.582-0.445-2.754v-7.875h3.293v5.719
		c0,1.75,0.061,2.822,0.182,3.217s0.342,0.707,0.662,0.938s0.727,0.346,1.219,0.346c0.562,0,1.066-0.154,1.512-0.463
		s0.75-0.691,0.914-1.148s0.246-1.576,0.246-3.357v-5.25h3.293v12.445H152.088z"/>
	<path display="inline" fill="#555555" d="M170.477,127.55h-3.293v-6.352c0-1.344-0.07-2.213-0.211-2.607s-0.369-0.701-0.686-0.92
		s-0.697-0.328-1.143-0.328c-0.57,0-1.082,0.156-1.535,0.469s-0.764,0.727-0.932,1.242s-0.252,1.469-0.252,2.859v5.637h-3.293
		v-12.445h3.059v1.828c1.086-1.406,2.453-2.109,4.102-2.109c0.727,0,1.391,0.131,1.992,0.393s1.057,0.596,1.365,1.002
		s0.523,0.867,0.645,1.383s0.182,1.254,0.182,2.215V127.55z"/>
	<path display="inline" fill="#555555" d="M174.111,128.37l3.762,0.457c0.062,0.438,0.207,0.738,0.434,0.902
		c0.312,0.234,0.805,0.352,1.477,0.352c0.859,0,1.504-0.129,1.934-0.387c0.289-0.172,0.508-0.449,0.656-0.832
		c0.102-0.273,0.152-0.777,0.152-1.512v-1.816c-0.984,1.344-2.227,2.016-3.727,2.016c-1.672,0-2.996-0.707-3.973-2.121
		c-0.766-1.117-1.148-2.508-1.148-4.172c0-2.086,0.502-3.68,1.506-4.781s2.252-1.652,3.744-1.652c1.539,0,2.809,0.676,3.809,2.027
		v-1.746h3.082v11.168c0,1.469-0.121,2.566-0.363,3.293s-0.582,1.297-1.02,1.711s-1.021,0.738-1.752,0.973s-1.654,0.352-2.771,0.352
		c-2.109,0-3.605-0.361-4.488-1.084s-1.324-1.639-1.324-2.748C174.1,128.659,174.104,128.526,174.111,128.37z M177.053,121.069
		c0,1.32,0.256,2.287,0.768,2.9s1.143,0.92,1.893,0.92c0.805,0,1.484-0.314,2.039-0.943s0.832-1.561,0.832-2.795
		c0-1.289-0.266-2.246-0.797-2.871s-1.203-0.938-2.016-0.938c-0.789,0-1.439,0.307-1.951,0.92S177.053,119.812,177.053,121.069z"/>
</g>
<line fill="none" stroke="#AFCA06" stroke-width="8" stroke-miterlimit="10" x1="16.5" y1="138.75" x2="239.5" y2="139.25"/>
<line display="none" fill="none" stroke="#0095DB" stroke-width="8" stroke-miterlimit="10" x1="16.5" y1="138.75" x2="239.5" y2="139.25"/>
<line display="none" fill="none" stroke="#D40F14" stroke-width="8" stroke-miterlimit="10" x1="16.5" y1="138.75" x2="239.5" y2="139.25"/>
<line display="none" fill="none" stroke="#FFCC00" stroke-width="8" stroke-miterlimit="10" x1="16.5" y1="138.75" x2="239.5" y2="139.25"/>
</svg>
