<?xml version="1.0" encoding="utf-8"?>
<!-- Generator: Adobe Illustrator 15.0.0, SVG Export Plug-In . SVG Version: 6.00 Build 0)  -->
<!DOCTYPE svg PUBLIC "-//W3C//DTD SVG 1.1//EN" "http://www.w3.org/Graphics/SVG/1.1/DTD/svg11.dtd">
<svg version="1.1" id="Ebene_1" xmlns="http://www.w3.org/2000/svg" xmlns:xlink="http://www.w3.org/1999/xlink" x="0px" y="0px"
	 width="256px" height="256px" viewBox="0 0 256 256" enable-background="new 0 0 256 256" xml:space="preserve">
<circle fill="none" stroke="#9C9C9C" stroke-miterlimit="10" cx="128" cy="128" r="123"/>
<g display="none">
	<path display="inline" fill="#555555" d="M39.74,81.57h2.273v9.926c0,1.727-0.195,3.098-0.586,4.113s-1.096,1.842-2.115,2.479
		s-2.357,0.955-4.014,0.955c-1.609,0-2.926-0.277-3.949-0.832s-1.754-1.357-2.191-2.408s-0.656-2.486-0.656-4.307V81.57h2.273v9.914
		c0,1.492,0.139,2.592,0.416,3.299s0.754,1.252,1.43,1.635s1.502,0.574,2.479,0.574c1.672,0,2.863-0.379,3.574-1.137
		s1.066-2.215,1.066-4.371V81.57z"/>
	<path display="inline" fill="#555555" d="M45.529,98.75V86.305h1.898v1.77c0.914-1.367,2.234-2.051,3.961-2.051
		c0.75,0,1.439,0.135,2.068,0.404s1.1,0.623,1.412,1.061s0.531,0.957,0.656,1.559c0.078,0.391,0.117,1.074,0.117,2.051v7.652h-2.109
		v-7.57c0-0.859-0.082-1.502-0.246-1.928s-0.455-0.766-0.873-1.02s-0.908-0.381-1.471-0.381c-0.898,0-1.674,0.285-2.326,0.855
		s-0.979,1.652-0.979,3.246v6.797H45.529z"/>
	<path display="inline" fill="#555555" d="M60.822,98.75h-1.957V81.57h2.109v6.129c0.891-1.117,2.027-1.676,3.41-1.676
		c0.766,0,1.49,0.154,2.174,0.463s1.246,0.742,1.688,1.301s0.787,1.232,1.037,2.021s0.375,1.633,0.375,2.531
		c0,2.133-0.527,3.781-1.582,4.945s-2.32,1.746-3.797,1.746c-1.469,0-2.621-0.613-3.457-1.84V98.75z M60.799,92.434
		c0,1.492,0.203,2.57,0.609,3.234c0.664,1.086,1.562,1.629,2.695,1.629c0.922,0,1.719-0.4,2.391-1.201s1.008-1.994,1.008-3.58
		c0-1.625-0.322-2.824-0.967-3.598s-1.424-1.16-2.338-1.16c-0.922,0-1.719,0.4-2.391,1.201S60.799,90.918,60.799,92.434z"/>
	<path display="inline" fill="#555555" d="M80.744,94.742l2.18,0.27c-0.344,1.273-0.98,2.262-1.91,2.965s-2.117,1.055-3.562,1.055
		c-1.82,0-3.264-0.561-4.33-1.682s-1.6-2.693-1.6-4.717c0-2.094,0.539-3.719,1.617-4.875s2.477-1.734,4.195-1.734
		c1.664,0,3.023,0.566,4.078,1.699s1.582,2.727,1.582,4.781c0,0.125-0.004,0.312-0.012,0.562h-9.281
		c0.078,1.367,0.465,2.414,1.16,3.141s1.562,1.09,2.602,1.09c0.773,0,1.434-0.203,1.98-0.609S80.424,95.633,80.744,94.742z
		 M73.818,91.332h6.949c-0.094-1.047-0.359-1.832-0.797-2.355c-0.672-0.812-1.543-1.219-2.613-1.219
		c-0.969,0-1.783,0.324-2.443,0.973S73.889,90.246,73.818,91.332z"/>
	<path display="inline" fill="#555555" d="M93.646,98.75v-1.57c-0.789,1.234-1.949,1.852-3.48,1.852
		c-0.992,0-1.904-0.273-2.736-0.82s-1.477-1.311-1.934-2.291s-0.686-2.107-0.686-3.381c0-1.242,0.207-2.369,0.621-3.381
		s1.035-1.787,1.863-2.326s1.754-0.809,2.777-0.809c0.75,0,1.418,0.158,2.004,0.475s1.062,0.729,1.43,1.236V81.57h2.098v17.18
		H93.646z M86.979,92.539c0,1.594,0.336,2.785,1.008,3.574s1.465,1.184,2.379,1.184c0.922,0,1.705-0.377,2.35-1.131
		s0.967-1.904,0.967-3.451c0-1.703-0.328-2.953-0.984-3.75s-1.465-1.195-2.426-1.195c-0.938,0-1.721,0.383-2.35,1.148
		S86.979,90.891,86.979,92.539z"/>
	<path display="inline" fill="#555555" d="M107.439,94.742l2.18,0.27c-0.344,1.273-0.98,2.262-1.91,2.965s-2.117,1.055-3.562,1.055
		c-1.82,0-3.264-0.561-4.33-1.682s-1.6-2.693-1.6-4.717c0-2.094,0.539-3.719,1.617-4.875s2.477-1.734,4.195-1.734
		c1.664,0,3.023,0.566,4.078,1.699s1.582,2.727,1.582,4.781c0,0.125-0.004,0.312-0.012,0.562h-9.281
		c0.078,1.367,0.465,2.414,1.16,3.141s1.562,1.09,2.602,1.09c0.773,0,1.434-0.203,1.98-0.609S107.119,95.633,107.439,94.742z
		 M100.514,91.332h6.949c-0.094-1.047-0.359-1.832-0.797-2.355c-0.672-0.812-1.543-1.219-2.613-1.219
		c-0.969,0-1.783,0.324-2.443,0.973S100.584,90.246,100.514,91.332z"/>
	<path display="inline" fill="#555555" d="M112.268,98.75V86.305h1.898v1.77c0.914-1.367,2.234-2.051,3.961-2.051
		c0.75,0,1.439,0.135,2.068,0.404s1.1,0.623,1.412,1.061s0.531,0.957,0.656,1.559c0.078,0.391,0.117,1.074,0.117,2.051v7.652h-2.109
		v-7.57c0-0.859-0.082-1.502-0.246-1.928s-0.455-0.766-0.873-1.02s-0.908-0.381-1.471-0.381c-0.898,0-1.674,0.285-2.326,0.855
		s-0.979,1.652-0.979,3.246v6.797H112.268z"/>
	<path display="inline" fill="#555555" d="M125.627,98.75V81.57h2.109v9.797l4.992-5.062h2.73l-4.758,4.617l5.238,7.828h-2.602
		l-4.113-6.363l-1.488,1.43v4.934H125.627z"/>
	<path display="inline" fill="#555555" d="M137.568,98.75V81.57h2.109v17.18H137.568z"/>
	<path display="inline" fill="#555555" d="M142.959,83.996V81.57h2.109v2.426H142.959z M142.959,98.75V86.305h2.109V98.75H142.959z"
		/>
	<path display="inline" fill="#555555" d="M156.4,94.191l2.074,0.27c-0.227,1.43-0.807,2.549-1.74,3.357s-2.08,1.213-3.439,1.213
		c-1.703,0-3.072-0.557-4.107-1.67s-1.553-2.709-1.553-4.787c0-1.344,0.223-2.52,0.668-3.527s1.123-1.764,2.033-2.268
		s1.9-0.756,2.971-0.756c1.352,0,2.457,0.342,3.316,1.025s1.41,1.654,1.652,2.912l-2.051,0.316
		c-0.195-0.836-0.541-1.465-1.037-1.887s-1.096-0.633-1.799-0.633c-1.062,0-1.926,0.381-2.59,1.143s-0.996,1.967-0.996,3.615
		c0,1.672,0.32,2.887,0.961,3.645s1.477,1.137,2.508,1.137c0.828,0,1.52-0.254,2.074-0.762S156.252,95.246,156.4,94.191z"/>
	<path display="inline" fill="#555555" d="M160.279,98.75V81.57h2.109v6.164c0.984-1.141,2.227-1.711,3.727-1.711
		c0.922,0,1.723,0.182,2.402,0.545s1.166,0.865,1.459,1.506s0.439,1.57,0.439,2.789v7.887h-2.109v-7.887
		c0-1.055-0.229-1.822-0.686-2.303s-1.104-0.721-1.939-0.721c-0.625,0-1.213,0.162-1.764,0.486s-0.943,0.764-1.178,1.318
		s-0.352,1.32-0.352,2.297v6.809H160.279z"/>
	<path display="inline" fill="#555555" d="M173.639,98.75V81.57h2.109v9.797l4.992-5.062h2.73l-4.758,4.617l5.238,7.828h-2.602
		l-4.113-6.363l-1.488,1.43v4.934H173.639z"/>
	<path display="inline" fill="#555555" d="M194.146,94.742l2.18,0.27c-0.344,1.273-0.98,2.262-1.91,2.965s-2.117,1.055-3.562,1.055
		c-1.82,0-3.264-0.561-4.33-1.682s-1.6-2.693-1.6-4.717c0-2.094,0.539-3.719,1.617-4.875s2.477-1.734,4.195-1.734
		c1.664,0,3.023,0.566,4.078,1.699s1.582,2.727,1.582,4.781c0,0.125-0.004,0.312-0.012,0.562h-9.281
		c0.078,1.367,0.465,2.414,1.16,3.141s1.562,1.09,2.602,1.09c0.773,0,1.434-0.203,1.98-0.609S193.826,95.633,194.146,94.742z
		 M187.221,91.332h6.949c-0.094-1.047-0.359-1.832-0.797-2.355c-0.672-0.812-1.543-1.219-2.613-1.219
		c-0.969,0-1.783,0.324-2.443,0.973S187.291,90.246,187.221,91.332z"/>
	<path display="inline" fill="#555555" d="M198.986,83.996V81.57h2.109v2.426H198.986z M198.986,98.75V86.305h2.109V98.75H198.986z"
		/>
	<path display="inline" fill="#555555" d="M208.912,96.863l0.305,1.863c-0.594,0.125-1.125,0.188-1.594,0.188
		c-0.766,0-1.359-0.121-1.781-0.363s-0.719-0.561-0.891-0.955s-0.258-1.225-0.258-2.49v-7.16h-1.547v-1.641h1.547v-3.082
		l2.098-1.266v4.348h2.121v1.641h-2.121v7.277c0,0.602,0.037,0.988,0.111,1.16s0.195,0.309,0.363,0.41s0.408,0.152,0.721,0.152
		C208.221,96.945,208.529,96.918,208.912,96.863z"/>
	<path display="inline" fill="#555555" d="M210.131,95.035l2.086-0.328c0.117,0.836,0.443,1.477,0.979,1.922
		s1.283,0.668,2.244,0.668c0.969,0,1.688-0.197,2.156-0.592s0.703-0.857,0.703-1.389c0-0.477-0.207-0.852-0.621-1.125
		c-0.289-0.188-1.008-0.426-2.156-0.715c-1.547-0.391-2.619-0.729-3.217-1.014s-1.051-0.68-1.359-1.184s-0.463-1.061-0.463-1.67
		c0-0.555,0.127-1.068,0.381-1.541s0.6-0.865,1.037-1.178c0.328-0.242,0.775-0.447,1.342-0.615s1.174-0.252,1.822-0.252
		c0.977,0,1.834,0.141,2.572,0.422s1.283,0.662,1.635,1.143s0.594,1.123,0.727,1.928l-2.062,0.281
		c-0.094-0.641-0.365-1.141-0.814-1.5s-1.084-0.539-1.904-0.539c-0.969,0-1.66,0.16-2.074,0.48s-0.621,0.695-0.621,1.125
		c0,0.273,0.086,0.52,0.258,0.738c0.172,0.227,0.441,0.414,0.809,0.562c0.211,0.078,0.832,0.258,1.863,0.539
		c1.492,0.398,2.533,0.725,3.123,0.979s1.053,0.623,1.389,1.107s0.504,1.086,0.504,1.805c0,0.703-0.205,1.365-0.615,1.986
		s-1.002,1.102-1.775,1.441s-1.648,0.51-2.625,0.51c-1.617,0-2.85-0.336-3.697-1.008S210.365,96.355,210.131,95.035z"/>
	<path display="inline" fill="#555555" d="M222.154,93.594v-2.121h6.48v2.121H222.154z"/>
	<path display="inline" fill="#555555" d="M54.131,127.55h-1.957v-17.18h2.109v6.129c0.891-1.117,2.027-1.676,3.41-1.676
		c0.766,0,1.49,0.154,2.174,0.463s1.246,0.742,1.688,1.301s0.787,1.232,1.037,2.021s0.375,1.633,0.375,2.531
		c0,2.133-0.527,3.781-1.582,4.945s-2.32,1.746-3.797,1.746c-1.469,0-2.621-0.613-3.457-1.84V127.55z M54.107,121.233
		c0,1.492,0.203,2.57,0.609,3.234c0.664,1.086,1.562,1.629,2.695,1.629c0.922,0,1.719-0.4,2.391-1.201s1.008-1.994,1.008-3.58
		c0-1.625-0.322-2.824-0.967-3.598s-1.424-1.16-2.338-1.16c-0.922,0-1.719,0.4-2.391,1.201S54.107,119.718,54.107,121.233z"/>
	<path display="inline" fill="#555555" d="M74.053,123.542l2.18,0.27c-0.344,1.273-0.98,2.262-1.91,2.965s-2.117,1.055-3.562,1.055
		c-1.82,0-3.264-0.561-4.33-1.682s-1.6-2.693-1.6-4.717c0-2.094,0.539-3.719,1.617-4.875s2.477-1.734,4.195-1.734
		c1.664,0,3.023,0.566,4.078,1.699s1.582,2.727,1.582,4.781c0,0.125-0.004,0.312-0.012,0.562H67.01
		c0.078,1.367,0.465,2.414,1.16,3.141s1.562,1.09,2.602,1.09c0.773,0,1.434-0.203,1.98-0.609S73.732,124.433,74.053,123.542z
		 M67.127,120.132h6.949c-0.094-1.047-0.359-1.832-0.797-2.355c-0.672-0.812-1.543-1.219-2.613-1.219
		c-0.969,0-1.783,0.324-2.443,0.973S67.197,119.046,67.127,120.132z"/>
	<path display="inline" fill="#555555" d="M78.037,123.835l2.086-0.328c0.117,0.836,0.443,1.477,0.979,1.922
		s1.283,0.668,2.244,0.668c0.969,0,1.688-0.197,2.156-0.592s0.703-0.857,0.703-1.389c0-0.477-0.207-0.852-0.621-1.125
		c-0.289-0.188-1.008-0.426-2.156-0.715c-1.547-0.391-2.619-0.729-3.217-1.014s-1.051-0.68-1.359-1.184s-0.463-1.061-0.463-1.67
		c0-0.555,0.127-1.068,0.381-1.541s0.6-0.865,1.037-1.178c0.328-0.242,0.775-0.447,1.342-0.615s1.174-0.252,1.822-0.252
		c0.977,0,1.834,0.141,2.572,0.422s1.283,0.662,1.635,1.143s0.594,1.123,0.727,1.928l-2.062,0.281
		c-0.094-0.641-0.365-1.141-0.814-1.5s-1.084-0.539-1.904-0.539c-0.969,0-1.66,0.16-2.074,0.48s-0.621,0.695-0.621,1.125
		c0,0.273,0.086,0.52,0.258,0.738c0.172,0.227,0.441,0.414,0.809,0.562c0.211,0.078,0.832,0.258,1.863,0.539
		c1.492,0.398,2.533,0.725,3.123,0.979s1.053,0.623,1.389,1.107s0.504,1.086,0.504,1.805c0,0.703-0.205,1.365-0.615,1.986
		s-1.002,1.102-1.775,1.441s-1.648,0.51-2.625,0.51c-1.617,0-2.85-0.336-3.697-1.008S78.271,125.155,78.037,123.835z"/>
	<path display="inline" fill="#555555" d="M99.002,122.991l2.074,0.27c-0.227,1.43-0.807,2.549-1.74,3.357s-2.08,1.213-3.439,1.213
		c-1.703,0-3.072-0.557-4.107-1.67s-1.553-2.709-1.553-4.787c0-1.344,0.223-2.52,0.668-3.527s1.123-1.764,2.033-2.268
		s1.9-0.756,2.971-0.756c1.352,0,2.457,0.342,3.316,1.025s1.41,1.654,1.652,2.912l-2.051,0.316
		c-0.195-0.836-0.541-1.465-1.037-1.887s-1.096-0.633-1.799-0.633c-1.062,0-1.926,0.381-2.59,1.143s-0.996,1.967-0.996,3.615
		c0,1.672,0.32,2.887,0.961,3.645s1.477,1.137,2.508,1.137c0.828,0,1.52-0.254,2.074-0.762S98.854,124.046,99.002,122.991z"/>
	<path display="inline" fill="#555555" d="M102.881,127.55v-17.18h2.109v6.164c0.984-1.141,2.227-1.711,3.727-1.711
		c0.922,0,1.723,0.182,2.402,0.545s1.166,0.865,1.459,1.506s0.439,1.57,0.439,2.789v7.887h-2.109v-7.887
		c0-1.055-0.229-1.822-0.686-2.303s-1.104-0.721-1.939-0.721c-0.625,0-1.213,0.162-1.764,0.486s-0.943,0.764-1.178,1.318
		s-0.352,1.32-0.352,2.297v6.809H102.881z"/>
	<path display="inline" fill="#555555" d="M124.748,123.542l2.18,0.27c-0.344,1.273-0.98,2.262-1.91,2.965s-2.117,1.055-3.562,1.055
		c-1.82,0-3.264-0.561-4.33-1.682s-1.6-2.693-1.6-4.717c0-2.094,0.539-3.719,1.617-4.875s2.477-1.734,4.195-1.734
		c1.664,0,3.023,0.566,4.078,1.699s1.582,2.727,1.582,4.781c0,0.125-0.004,0.312-0.012,0.562h-9.281
		c0.078,1.367,0.465,2.414,1.16,3.141s1.562,1.09,2.602,1.09c0.773,0,1.434-0.203,1.98-0.609S124.428,124.433,124.748,123.542z
		 M117.822,120.132h6.949c-0.094-1.047-0.359-1.832-0.797-2.355c-0.672-0.812-1.543-1.219-2.613-1.219
		c-0.969,0-1.783,0.324-2.443,0.973S117.893,119.046,117.822,120.132z"/>
	<path display="inline" fill="#555555" d="M129.588,112.796v-2.426h2.109v2.426H129.588z M129.588,127.55v-12.445h2.109v12.445
		H129.588z"/>
	<path display="inline" fill="#555555" d="M134.908,127.55v-12.445h1.898v1.77c0.914-1.367,2.234-2.051,3.961-2.051
		c0.75,0,1.439,0.135,2.068,0.404s1.1,0.623,1.412,1.061s0.531,0.957,0.656,1.559c0.078,0.391,0.117,1.074,0.117,2.051v7.652h-2.109
		v-7.57c0-0.859-0.082-1.502-0.246-1.928s-0.455-0.766-0.873-1.02s-0.908-0.381-1.471-0.381c-0.898,0-1.674,0.285-2.326,0.855
		s-0.979,1.652-0.979,3.246v6.797H134.908z"/>
	<path display="inline" fill="#555555" d="M148.268,112.796v-2.426h2.109v2.426H148.268z M148.268,127.55v-12.445h2.109v12.445
		H148.268z"/>
	<path display="inline" fill="#555555" d="M153.201,128.581l2.051,0.305c0.086,0.633,0.324,1.094,0.715,1.383
		c0.523,0.391,1.238,0.586,2.145,0.586c0.977,0,1.73-0.195,2.262-0.586s0.891-0.938,1.078-1.641c0.109-0.43,0.16-1.332,0.152-2.707
		c-0.922,1.086-2.07,1.629-3.445,1.629c-1.711,0-3.035-0.617-3.973-1.852s-1.406-2.715-1.406-4.441c0-1.188,0.215-2.283,0.645-3.287
		s1.053-1.779,1.869-2.326s1.775-0.82,2.877-0.82c1.469,0,2.68,0.594,3.633,1.781v-1.5h1.945v10.758
		c0,1.938-0.197,3.311-0.592,4.119s-1.02,1.447-1.875,1.916s-1.908,0.703-3.158,0.703c-1.484,0-2.684-0.334-3.598-1.002
		S153.17,129.925,153.201,128.581z M154.947,121.104c0,1.633,0.324,2.824,0.973,3.574s1.461,1.125,2.438,1.125
		c0.969,0,1.781-0.373,2.438-1.119s0.984-1.916,0.984-3.51c0-1.523-0.338-2.672-1.014-3.445s-1.49-1.16-2.443-1.16
		c-0.938,0-1.734,0.381-2.391,1.143S154.947,119.604,154.947,121.104z"/>
	<path display="inline" fill="#555555" d="M175.092,127.55v-1.828c-0.969,1.406-2.285,2.109-3.949,2.109
		c-0.734,0-1.42-0.141-2.057-0.422s-1.109-0.635-1.418-1.061s-0.525-0.947-0.65-1.564c-0.086-0.414-0.129-1.07-0.129-1.969v-7.711
		h2.109v6.902c0,1.102,0.043,1.844,0.129,2.227c0.133,0.555,0.414,0.99,0.844,1.307s0.961,0.475,1.594,0.475
		s1.227-0.162,1.781-0.486s0.947-0.766,1.178-1.324s0.346-1.369,0.346-2.432v-6.668h2.109v12.445H175.092z"/>
	<path display="inline" fill="#555555" d="M180.283,127.55v-12.445h1.898v1.77c0.914-1.367,2.234-2.051,3.961-2.051
		c0.75,0,1.439,0.135,2.068,0.404s1.1,0.623,1.412,1.061s0.531,0.957,0.656,1.559c0.078,0.391,0.117,1.074,0.117,2.051v7.652h-2.109
		v-7.57c0-0.859-0.082-1.502-0.246-1.928s-0.455-0.766-0.873-1.02s-0.908-0.381-1.471-0.381c-0.898,0-1.674,0.285-2.326,0.855
		s-0.979,1.652-0.979,3.246v6.797H180.283z"/>
	<path display="inline" fill="#555555" d="M193.244,128.581l2.051,0.305c0.086,0.633,0.324,1.094,0.715,1.383
		c0.523,0.391,1.238,0.586,2.145,0.586c0.977,0,1.73-0.195,2.262-0.586s0.891-0.938,1.078-1.641c0.109-0.43,0.16-1.332,0.152-2.707
		c-0.922,1.086-2.07,1.629-3.445,1.629c-1.711,0-3.035-0.617-3.973-1.852s-1.406-2.715-1.406-4.441c0-1.188,0.215-2.283,0.645-3.287
		s1.053-1.779,1.869-2.326s1.775-0.82,2.877-0.82c1.469,0,2.68,0.594,3.633,1.781v-1.5h1.945v10.758
		c0,1.938-0.197,3.311-0.592,4.119s-1.02,1.447-1.875,1.916s-1.908,0.703-3.158,0.703c-1.484,0-2.684-0.334-3.598-1.002
		S193.213,129.925,193.244,128.581z M194.99,121.104c0,1.633,0.324,2.824,0.973,3.574s1.461,1.125,2.438,1.125
		c0.969,0,1.781-0.373,2.438-1.119s0.984-1.916,0.984-3.51c0-1.523-0.338-2.672-1.014-3.445s-1.49-1.16-2.443-1.16
		c-0.938,0-1.734,0.381-2.391,1.143S194.99,119.604,194.99,121.104z"/>
</g>
<g display="none">
	<path display="inline" fill="#555555" d="M30.858,127.55v-17.18h12.738v2.906h-9.27v3.809h8.625v2.895h-8.625v4.676h9.598v2.895
		H30.858z"/>
	<path display="inline" fill="#555555" d="M58.763,127.55H55.47v-6.352c0-1.344-0.07-2.213-0.211-2.607s-0.369-0.701-0.686-0.92
		s-0.697-0.328-1.143-0.328c-0.57,0-1.082,0.156-1.535,0.469s-0.764,0.727-0.932,1.242s-0.252,1.469-0.252,2.859v5.637h-3.293
		v-12.445h3.059v1.828c1.086-1.406,2.453-2.109,4.102-2.109c0.727,0,1.391,0.131,1.992,0.393s1.057,0.596,1.365,1.002
		s0.523,0.867,0.645,1.383s0.182,1.254,0.182,2.215V127.55z"/>
	<path display="inline" fill="#555555" d="M68.41,115.104v2.625h-2.25v5.016c0,1.016,0.021,1.607,0.064,1.775
		s0.141,0.307,0.293,0.416s0.338,0.164,0.557,0.164c0.305,0,0.746-0.105,1.324-0.316l0.281,2.555
		c-0.766,0.328-1.633,0.492-2.602,0.492c-0.594,0-1.129-0.1-1.605-0.299s-0.826-0.457-1.049-0.773s-0.377-0.744-0.463-1.283
		c-0.07-0.383-0.105-1.156-0.105-2.32v-5.426h-1.512v-2.625h1.512v-2.473l3.305-1.922v4.395H68.41z"/>
	<path display="inline" fill="#555555" d="M70.99,128.37l3.762,0.457c0.062,0.438,0.207,0.738,0.434,0.902
		c0.312,0.234,0.805,0.352,1.477,0.352c0.859,0,1.504-0.129,1.934-0.387c0.289-0.172,0.508-0.449,0.656-0.832
		c0.102-0.273,0.152-0.777,0.152-1.512v-1.816c-0.984,1.344-2.227,2.016-3.727,2.016c-1.672,0-2.996-0.707-3.973-2.121
		c-0.766-1.117-1.148-2.508-1.148-4.172c0-2.086,0.502-3.68,1.506-4.781s2.252-1.652,3.744-1.652c1.539,0,2.809,0.676,3.809,2.027
		v-1.746h3.082v11.168c0,1.469-0.121,2.566-0.363,3.293s-0.582,1.297-1.02,1.711s-1.021,0.738-1.752,0.973s-1.654,0.352-2.771,0.352
		c-2.109,0-3.605-0.361-4.488-1.084s-1.324-1.639-1.324-2.748C70.979,128.659,70.982,128.526,70.99,128.37z M73.932,121.069
		c0,1.32,0.256,2.287,0.768,2.9s1.143,0.92,1.893,0.92c0.805,0,1.484-0.314,2.039-0.943s0.832-1.561,0.832-2.795
		c0-1.289-0.266-2.246-0.797-2.871s-1.203-0.938-2.016-0.938c-0.789,0-1.439,0.307-1.951,0.92S73.932,119.812,73.932,121.069z"/>
	<path display="inline" fill="#555555" d="M93.762,123.589l3.281,0.551c-0.422,1.203-1.088,2.119-1.998,2.748
		s-2.049,0.943-3.416,0.943c-2.164,0-3.766-0.707-4.805-2.121c-0.82-1.133-1.23-2.562-1.23-4.289c0-2.062,0.539-3.678,1.617-4.846
		s2.441-1.752,4.09-1.752c1.852,0,3.312,0.611,4.383,1.834s1.582,3.096,1.535,5.619h-8.25c0.023,0.977,0.289,1.736,0.797,2.279
		s1.141,0.814,1.898,0.814c0.516,0,0.949-0.141,1.301-0.422S93.583,124.214,93.762,123.589z M93.95,120.261
		c-0.023-0.953-0.27-1.678-0.738-2.174s-1.039-0.744-1.711-0.744c-0.719,0-1.312,0.262-1.781,0.785s-0.699,1.234-0.691,2.133H93.95z
		"/>
	<path display="inline" fill="#555555" d="M100.503,127.55v-17.18h3.293v17.18H100.503z"/>
	<path display="inline" fill="#555555" d="M113.478,115.104v2.625h-2.25v5.016c0,1.016,0.021,1.607,0.064,1.775
		s0.141,0.307,0.293,0.416s0.338,0.164,0.557,0.164c0.305,0,0.746-0.105,1.324-0.316l0.281,2.555
		c-0.766,0.328-1.633,0.492-2.602,0.492c-0.594,0-1.129-0.1-1.605-0.299s-0.826-0.457-1.049-0.773s-0.377-0.744-0.463-1.283
		c-0.07-0.383-0.105-1.156-0.105-2.32v-5.426h-1.512v-2.625h1.512v-2.473l3.305-1.922v4.395H113.478z"/>
	<path display="inline" fill="#555555" d="M127.684,127.55h-3.293v-6.352c0-1.344-0.07-2.213-0.211-2.607s-0.369-0.701-0.686-0.92
		s-0.697-0.328-1.143-0.328c-0.57,0-1.082,0.156-1.535,0.469s-0.764,0.727-0.932,1.242s-0.252,1.469-0.252,2.859v5.637h-3.293
		v-12.445h3.059v1.828c1.086-1.406,2.453-2.109,4.102-2.109c0.727,0,1.391,0.131,1.992,0.393s1.057,0.596,1.365,1.002
		s0.523,0.867,0.645,1.383s0.182,1.254,0.182,2.215V127.55z"/>
	<path display="inline" fill="#555555" d="M134.084,118.901l-2.988-0.539c0.336-1.203,0.914-2.094,1.734-2.672
		s2.039-0.867,3.656-0.867c1.469,0,2.562,0.174,3.281,0.521s1.225,0.789,1.518,1.324s0.439,1.518,0.439,2.947l-0.035,3.844
		c0,1.094,0.053,1.9,0.158,2.42s0.303,1.076,0.592,1.67h-3.258c-0.086-0.219-0.191-0.543-0.316-0.973
		c-0.055-0.195-0.094-0.324-0.117-0.387c-0.562,0.547-1.164,0.957-1.805,1.23s-1.324,0.41-2.051,0.41
		c-1.281,0-2.291-0.348-3.029-1.043s-1.107-1.574-1.107-2.637c0-0.703,0.168-1.33,0.504-1.881s0.807-0.973,1.412-1.266
		s1.479-0.549,2.619-0.768c1.539-0.289,2.605-0.559,3.199-0.809v-0.328c0-0.633-0.156-1.084-0.469-1.354s-0.902-0.404-1.77-0.404
		c-0.586,0-1.043,0.115-1.371,0.346S134.287,118.323,134.084,118.901z M138.49,121.573c-0.422,0.141-1.09,0.309-2.004,0.504
		s-1.512,0.387-1.793,0.574c-0.43,0.305-0.645,0.691-0.645,1.16c0,0.461,0.172,0.859,0.516,1.195s0.781,0.504,1.312,0.504
		c0.594,0,1.16-0.195,1.699-0.586c0.398-0.297,0.66-0.66,0.785-1.09c0.086-0.281,0.129-0.816,0.129-1.605V121.573z"/>
	<path display="inline" fill="#555555" d="M156.422,118.784l-3.246,0.586c-0.109-0.648-0.357-1.137-0.744-1.465
		s-0.889-0.492-1.506-0.492c-0.82,0-1.475,0.283-1.963,0.85s-0.732,1.514-0.732,2.842c0,1.477,0.248,2.52,0.744,3.129
		s1.162,0.914,1.998,0.914c0.625,0,1.137-0.178,1.535-0.533s0.68-0.967,0.844-1.834l3.234,0.551
		c-0.336,1.484-0.98,2.605-1.934,3.363s-2.23,1.137-3.832,1.137c-1.82,0-3.271-0.574-4.354-1.723s-1.623-2.738-1.623-4.77
		c0-2.055,0.543-3.654,1.629-4.799s2.555-1.717,4.406-1.717c1.516,0,2.721,0.326,3.615,0.979S156.031,117.448,156.422,118.784z"/>
	<path display="inline" fill="#555555" d="M162.8,110.37v6.316c1.062-1.242,2.332-1.863,3.809-1.863
		c0.758,0,1.441,0.141,2.051,0.422s1.068,0.641,1.377,1.078s0.52,0.922,0.633,1.453s0.17,1.355,0.17,2.473v7.301h-3.293v-6.574
		c0-1.305-0.062-2.133-0.188-2.484s-0.346-0.631-0.662-0.838s-0.713-0.311-1.189-0.311c-0.547,0-1.035,0.133-1.465,0.398
		s-0.744,0.666-0.943,1.201s-0.299,1.326-0.299,2.373v6.234h-3.293v-17.18H162.8z"/>
	<path display="inline" fill="#555555" d="M177.1,127.55l-3.938-12.445h3.199l2.332,8.156l2.145-8.156h3.176l2.074,8.156
		l2.379-8.156h3.246l-3.996,12.445h-3.164l-2.145-8.004l-2.109,8.004H177.1z"/>
	<path display="inline" fill="#555555" d="M201.254,123.589l3.281,0.551c-0.422,1.203-1.088,2.119-1.998,2.748
		s-2.049,0.943-3.416,0.943c-2.164,0-3.766-0.707-4.805-2.121c-0.82-1.133-1.23-2.562-1.23-4.289c0-2.062,0.539-3.678,1.617-4.846
		s2.441-1.752,4.09-1.752c1.852,0,3.312,0.611,4.383,1.834s1.582,3.096,1.535,5.619h-8.25c0.023,0.977,0.289,1.736,0.797,2.279
		s1.141,0.814,1.898,0.814c0.516,0,0.949-0.141,1.301-0.422S201.074,124.214,201.254,123.589z M201.441,120.261
		c-0.023-0.953-0.27-1.678-0.738-2.174s-1.039-0.744-1.711-0.744c-0.719,0-1.312,0.262-1.781,0.785s-0.699,1.234-0.691,2.133
		H201.441z"/>
	<path display="inline" fill="#555555" d="M207.994,113.417v-3.047h3.293v3.047H207.994z M207.994,127.55v-12.445h3.293v12.445
		H207.994z"/>
	<path display="inline" fill="#555555" d="M214.102,123.999l3.305-0.504c0.141,0.641,0.426,1.127,0.855,1.459
		s1.031,0.498,1.805,0.498c0.852,0,1.492-0.156,1.922-0.469c0.289-0.219,0.434-0.512,0.434-0.879c0-0.25-0.078-0.457-0.234-0.621
		c-0.164-0.156-0.531-0.301-1.102-0.434c-2.656-0.586-4.34-1.121-5.051-1.605c-0.984-0.672-1.477-1.605-1.477-2.801
		c0-1.078,0.426-1.984,1.277-2.719s2.172-1.102,3.961-1.102c1.703,0,2.969,0.277,3.797,0.832s1.398,1.375,1.711,2.461l-3.105,0.574
		c-0.133-0.484-0.385-0.855-0.756-1.113s-0.9-0.387-1.588-0.387c-0.867,0-1.488,0.121-1.863,0.363
		c-0.25,0.172-0.375,0.395-0.375,0.668c0,0.234,0.109,0.434,0.328,0.598c0.297,0.219,1.322,0.527,3.076,0.926
		s2.979,0.887,3.674,1.465c0.688,0.586,1.031,1.402,1.031,2.449c0,1.141-0.477,2.121-1.43,2.941s-2.363,1.23-4.23,1.23
		c-1.695,0-3.037-0.344-4.025-1.031S214.406,125.179,214.102,123.999z"/>
</g>
<g>
	<path fill="#555555" d="M48.773,110.37h3.469v9.305c0,1.477,0.043,2.434,0.129,2.871c0.148,0.703,0.502,1.268,1.061,1.693
		s1.322,0.639,2.291,0.639c0.984,0,1.727-0.201,2.227-0.604s0.801-0.896,0.902-1.482s0.152-1.559,0.152-2.918v-9.504h3.469v9.023
		c0,2.062-0.094,3.52-0.281,4.371s-0.533,1.57-1.037,2.156s-1.178,1.053-2.021,1.4s-1.945,0.521-3.305,0.521
		c-1.641,0-2.885-0.189-3.732-0.568s-1.518-0.871-2.01-1.477s-0.816-1.24-0.973-1.904c-0.227-0.984-0.34-2.438-0.34-4.359V110.37z"
		/>
	<path fill="#555555" d="M78.025,127.55h-3.293v-6.352c0-1.344-0.07-2.213-0.211-2.607s-0.369-0.701-0.686-0.92
		s-0.697-0.328-1.143-0.328c-0.57,0-1.082,0.156-1.535,0.469s-0.764,0.727-0.932,1.242s-0.252,1.469-0.252,2.859v5.637h-3.293
		v-12.445h3.059v1.828c1.086-1.406,2.453-2.109,4.102-2.109c0.727,0,1.391,0.131,1.992,0.393s1.057,0.596,1.365,1.002
		s0.523,0.867,0.645,1.383s0.182,1.254,0.182,2.215V127.55z"/>
	<path fill="#555555" d="M80.524,115.104h1.828v-0.938c0-1.047,0.111-1.828,0.334-2.344s0.633-0.936,1.23-1.26
		s1.354-0.486,2.268-0.486c0.938,0,1.855,0.141,2.754,0.422l-0.445,2.297c-0.523-0.125-1.027-0.188-1.512-0.188
		c-0.477,0-0.818,0.111-1.025,0.334s-0.311,0.65-0.311,1.283v0.879h2.461v2.59h-2.461v9.855h-3.293v-9.855h-1.828V115.104z"/>
	<path fill="#555555" d="M93.018,118.901l-2.988-0.539c0.336-1.203,0.914-2.094,1.734-2.672s2.039-0.867,3.656-0.867
		c1.469,0,2.562,0.174,3.281,0.521s1.225,0.789,1.518,1.324s0.439,1.518,0.439,2.947l-0.035,3.844c0,1.094,0.053,1.9,0.158,2.42
		s0.303,1.076,0.592,1.67h-3.258c-0.086-0.219-0.191-0.543-0.316-0.973c-0.055-0.195-0.094-0.324-0.117-0.387
		c-0.562,0.547-1.164,0.957-1.805,1.23s-1.324,0.41-2.051,0.41c-1.281,0-2.291-0.348-3.029-1.043s-1.107-1.574-1.107-2.637
		c0-0.703,0.168-1.33,0.504-1.881s0.807-0.973,1.412-1.266s1.479-0.549,2.619-0.768c1.539-0.289,2.605-0.559,3.199-0.809v-0.328
		c0-0.633-0.156-1.084-0.469-1.354s-0.902-0.404-1.77-0.404c-0.586,0-1.043,0.115-1.371,0.346S93.221,118.323,93.018,118.901z
		 M97.424,121.573c-0.422,0.141-1.09,0.309-2.004,0.504s-1.512,0.387-1.793,0.574c-0.43,0.305-0.645,0.691-0.645,1.16
		c0,0.461,0.172,0.859,0.516,1.195s0.781,0.504,1.312,0.504c0.594,0,1.16-0.195,1.699-0.586c0.398-0.297,0.66-0.66,0.785-1.09
		c0.086-0.281,0.129-0.816,0.129-1.605V121.573z"/>
	<path fill="#555555" d="M104.505,127.55v-17.18h3.293v17.18H104.505z"/>
	<path fill="#555555" d="M111.773,127.55v-17.18h3.293v17.18H111.773z"/>
	<path fill="#555555" d="M121.502,118.901l-2.988-0.539c0.336-1.203,0.914-2.094,1.734-2.672s2.039-0.867,3.656-0.867
		c1.469,0,2.562,0.174,3.281,0.521s1.225,0.789,1.518,1.324s0.439,1.518,0.439,2.947l-0.035,3.844c0,1.094,0.053,1.9,0.158,2.42
		s0.303,1.076,0.592,1.67H126.6c-0.086-0.219-0.191-0.543-0.316-0.973c-0.055-0.195-0.094-0.324-0.117-0.387
		c-0.562,0.547-1.164,0.957-1.805,1.23s-1.324,0.41-2.051,0.41c-1.281,0-2.291-0.348-3.029-1.043s-1.107-1.574-1.107-2.637
		c0-0.703,0.168-1.33,0.504-1.881s0.807-0.973,1.412-1.266s1.479-0.549,2.619-0.768c1.539-0.289,2.605-0.559,3.199-0.809v-0.328
		c0-0.633-0.156-1.084-0.469-1.354s-0.902-0.404-1.77-0.404c-0.586,0-1.043,0.115-1.371,0.346S121.705,118.323,121.502,118.901z
		 M125.908,121.573c-0.422,0.141-1.09,0.309-2.004,0.504s-1.512,0.387-1.793,0.574c-0.43,0.305-0.645,0.691-0.645,1.16
		c0,0.461,0.172,0.859,0.516,1.195s0.781,0.504,1.312,0.504c0.594,0,1.16-0.195,1.699-0.586c0.398-0.297,0.66-0.66,0.785-1.09
		c0.086-0.281,0.129-0.816,0.129-1.605V121.573z"/>
	<path fill="#555555" d="M144.309,127.55h-3.293v-6.352c0-1.344-0.07-2.213-0.211-2.607s-0.369-0.701-0.686-0.92
		s-0.697-0.328-1.143-0.328c-0.57,0-1.082,0.156-1.535,0.469s-0.764,0.727-0.932,1.242s-0.252,1.469-0.252,2.859v5.637h-3.293
		v-12.445h3.059v1.828c1.086-1.406,2.453-2.109,4.102-2.109c0.727,0,1.391,0.131,1.992,0.393s1.057,0.596,1.365,1.002
		s0.523,0.867,0.645,1.383s0.182,1.254,0.182,2.215V127.55z"/>
	<path fill="#555555" d="M146.924,127.55v-2.566l4.664-5.355c0.766-0.875,1.332-1.496,1.699-1.863
		c-0.383,0.023-0.887,0.039-1.512,0.047l-4.395,0.023v-2.73h10.289v2.332l-4.758,5.484l-1.676,1.816
		c0.914-0.055,1.48-0.082,1.699-0.082h5.098v2.895H146.924z"/>
	<path fill="#555555" d="M168.056,123.589l3.281,0.551c-0.422,1.203-1.088,2.119-1.998,2.748s-2.049,0.943-3.416,0.943
		c-2.164,0-3.766-0.707-4.805-2.121c-0.82-1.133-1.23-2.562-1.23-4.289c0-2.062,0.539-3.678,1.617-4.846s2.441-1.752,4.09-1.752
		c1.852,0,3.312,0.611,4.383,1.834s1.582,3.096,1.535,5.619h-8.25c0.023,0.977,0.289,1.736,0.797,2.279s1.141,0.814,1.898,0.814
		c0.516,0,0.949-0.141,1.301-0.422S167.876,124.214,168.056,123.589z M168.243,120.261c-0.023-0.953-0.27-1.678-0.738-2.174
		s-1.039-0.744-1.711-0.744c-0.719,0-1.312,0.262-1.781,0.785s-0.699,1.234-0.691,2.133H168.243z"/>
	<path fill="#555555" d="M174.797,113.417v-3.047h3.293v3.047H174.797z M174.797,127.55v-12.445h3.293v12.445H174.797z"/>
	<path fill="#555555" d="M181.76,128.37l3.762,0.457c0.062,0.438,0.207,0.738,0.434,0.902c0.312,0.234,0.805,0.352,1.477,0.352
		c0.859,0,1.504-0.129,1.934-0.387c0.289-0.172,0.508-0.449,0.656-0.832c0.102-0.273,0.152-0.777,0.152-1.512v-1.816
		c-0.984,1.344-2.227,2.016-3.727,2.016c-1.672,0-2.996-0.707-3.973-2.121c-0.766-1.117-1.148-2.508-1.148-4.172
		c0-2.086,0.502-3.68,1.506-4.781s2.252-1.652,3.744-1.652c1.539,0,2.809,0.676,3.809,2.027v-1.746h3.082v11.168
		c0,1.469-0.121,2.566-0.363,3.293s-0.582,1.297-1.02,1.711s-1.021,0.738-1.752,0.973s-1.654,0.352-2.771,0.352
		c-2.109,0-3.605-0.361-4.488-1.084s-1.324-1.639-1.324-2.748C181.748,128.659,181.752,128.526,181.76,128.37z M184.701,121.069
		c0,1.32,0.256,2.287,0.768,2.9s1.143,0.92,1.893,0.92c0.805,0,1.484-0.314,2.039-0.943s0.832-1.561,0.832-2.795
		c0-1.289-0.266-2.246-0.797-2.871s-1.203-0.938-2.016-0.938c-0.789,0-1.439,0.307-1.951,0.92S184.701,119.812,184.701,121.069z"/>
	<path fill="#555555" d="M204.531,123.589l3.281,0.551c-0.422,1.203-1.088,2.119-1.998,2.748s-2.049,0.943-3.416,0.943
		c-2.164,0-3.766-0.707-4.805-2.121c-0.82-1.133-1.23-2.562-1.23-4.289c0-2.062,0.539-3.678,1.617-4.846s2.441-1.752,4.09-1.752
		c1.852,0,3.312,0.611,4.383,1.834s1.582,3.096,1.535,5.619h-8.25c0.023,0.977,0.289,1.736,0.797,2.279s1.141,0.814,1.898,0.814
		c0.516,0,0.949-0.141,1.301-0.422S204.352,124.214,204.531,123.589z M204.719,120.261c-0.023-0.953-0.27-1.678-0.738-2.174
		s-1.039-0.744-1.711-0.744c-0.719,0-1.312,0.262-1.781,0.785s-0.699,1.234-0.691,2.133H204.719z"/>
</g>
<g display="none">
	<path display="inline" fill="#555555" d="M70.345,127.55v-17.18h5.191l3.117,11.719l3.082-11.719h5.203v17.18h-3.223v-13.523
		l-3.41,13.523h-3.34l-3.398-13.523v13.523H70.345z"/>
	<path display="inline" fill="#555555" d="M90.96,113.417v-3.047h3.293v3.047H90.96z M90.96,127.55v-12.445h3.293v12.445H90.96z"/>
	<path display="inline" fill="#555555" d="M103.936,115.104v2.625h-2.25v5.016c0,1.016,0.021,1.607,0.064,1.775
		s0.141,0.307,0.293,0.416s0.338,0.164,0.557,0.164c0.305,0,0.746-0.105,1.324-0.316l0.281,2.555
		c-0.766,0.328-1.633,0.492-2.602,0.492c-0.594,0-1.129-0.1-1.605-0.299s-0.826-0.457-1.049-0.773s-0.377-0.744-0.463-1.283
		c-0.07-0.383-0.105-1.156-0.105-2.32v-5.426h-1.512v-2.625h1.512v-2.473l3.305-1.922v4.395H103.936z"/>
	<path display="inline" fill="#555555" d="M112.527,115.104v2.625h-2.25v5.016c0,1.016,0.021,1.607,0.064,1.775
		s0.141,0.307,0.293,0.416s0.338,0.164,0.557,0.164c0.305,0,0.746-0.105,1.324-0.316l0.281,2.555
		c-0.766,0.328-1.633,0.492-2.602,0.492c-0.594,0-1.129-0.1-1.605-0.299s-0.826-0.457-1.049-0.773s-0.377-0.744-0.463-1.283
		c-0.07-0.383-0.105-1.156-0.105-2.32v-5.426h-1.512v-2.625h1.512v-2.473l3.305-1.922v4.395H112.527z"/>
	<path display="inline" fill="#555555" d="M122.62,123.589l3.281,0.551c-0.422,1.203-1.088,2.119-1.998,2.748
		s-2.049,0.943-3.416,0.943c-2.164,0-3.766-0.707-4.805-2.121c-0.82-1.133-1.23-2.562-1.23-4.289c0-2.062,0.539-3.678,1.617-4.846
		s2.441-1.752,4.09-1.752c1.852,0,3.312,0.611,4.383,1.834s1.582,3.096,1.535,5.619h-8.25c0.023,0.977,0.289,1.736,0.797,2.279
		s1.141,0.814,1.898,0.814c0.516,0,0.949-0.141,1.301-0.422S122.44,124.214,122.62,123.589z M122.807,120.261
		c-0.023-0.953-0.27-1.678-0.738-2.174s-1.039-0.744-1.711-0.744c-0.719,0-1.312,0.262-1.781,0.785s-0.699,1.234-0.691,2.133
		H122.807z"/>
	<path display="inline" fill="#555555" d="M129.36,113.417v-3.047h3.293v3.047H129.36z M129.36,127.55v-12.445h3.293v12.445H129.36z
		"/>
	<path display="inline" fill="#555555" d="M136.629,127.55v-17.18h3.293v17.18H136.629z"/>
	<path display="inline" fill="#555555" d="M152.088,127.55v-1.863c-0.453,0.664-1.049,1.188-1.787,1.57s-1.518,0.574-2.338,0.574
		c-0.836,0-1.586-0.184-2.25-0.551s-1.145-0.883-1.441-1.547s-0.445-1.582-0.445-2.754v-7.875h3.293v5.719
		c0,1.75,0.061,2.822,0.182,3.217s0.342,0.707,0.662,0.938s0.727,0.346,1.219,0.346c0.562,0,1.066-0.154,1.512-0.463
		s0.75-0.691,0.914-1.148s0.246-1.576,0.246-3.357v-5.25h3.293v12.445H152.088z"/>
	<path display="inline" fill="#555555" d="M170.477,127.55h-3.293v-6.352c0-1.344-0.07-2.213-0.211-2.607s-0.369-0.701-0.686-0.92
		s-0.697-0.328-1.143-0.328c-0.57,0-1.082,0.156-1.535,0.469s-0.764,0.727-0.932,1.242s-0.252,1.469-0.252,2.859v5.637h-3.293
		v-12.445h3.059v1.828c1.086-1.406,2.453-2.109,4.102-2.109c0.727,0,1.391,0.131,1.992,0.393s1.057,0.596,1.365,1.002
		s0.523,0.867,0.645,1.383s0.182,1.254,0.182,2.215V127.55z"/>
	<path display="inline" fill="#555555" d="M174.111,128.37l3.762,0.457c0.062,0.438,0.207,0.738,0.434,0.902
		c0.312,0.234,0.805,0.352,1.477,0.352c0.859,0,1.504-0.129,1.934-0.387c0.289-0.172,0.508-0.449,0.656-0.832
		c0.102-0.273,0.152-0.777,0.152-1.512v-1.816c-0.984,1.344-2.227,2.016-3.727,2.016c-1.672,0-2.996-0.707-3.973-2.121
		c-0.766-1.117-1.148-2.508-1.148-4.172c0-2.086,0.502-3.68,1.506-4.781s2.252-1.652,3.744-1.652c1.539,0,2.809,0.676,3.809,2.027
		v-1.746h3.082v11.168c0,1.469-0.121,2.566-0.363,3.293s-0.582,1.297-1.02,1.711s-1.021,0.738-1.752,0.973s-1.654,0.352-2.771,0.352
		c-2.109,0-3.605-0.361-4.488-1.084s-1.324-1.639-1.324-2.748C174.1,128.659,174.104,128.526,174.111,128.37z M177.053,121.069
		c0,1.32,0.256,2.287,0.768,2.9s1.143,0.92,1.893,0.92c0.805,0,1.484-0.314,2.039-0.943s0.832-1.561,0.832-2.795
		c0-1.289-0.266-2.246-0.797-2.871s-1.203-0.938-2.016-0.938c-0.789,0-1.439,0.307-1.951,0.92S177.053,119.812,177.053,121.069z"/>
</g>
<line display="none" fill="none" stroke="#AFCA06" stroke-width="8" stroke-miterlimit="10" x1="16.5" y1="138.75" x2="239.5" y2="139.25"/>
<line display="none" fill="none" stroke="#0095DB" stroke-width="8" stroke-miterlimit="10" x1="16.5" y1="138.75" x2="239.5" y2="139.25"/>
<line fill="none" stroke="#D40F14" stroke-width="8" stroke-miterlimit="10" x1="16.5" y1="138.75" x2="239.5" y2="139.25"/>
<line display="none" fill="none" stroke="#FFCC00" stroke-width="8" stroke-miterlimit="10" x1="16.5" y1="138.75" x2="239.5" y2="139.25"/>
</svg>
